%TF.GenerationSoftware,KiCad,Pcbnew,9.0.7*%
%TF.CreationDate,2026-09-05T12:01:45+02:00*%
%TF.ProjectId,antena-wifi,616e7465-6e61-42d7-9769-66692e6b6963,1*%
%TF.SameCoordinates,Original*%
%TF.FileFunction,Soldermask,Top*%
%TF.FilePolarity,Negative*%
%FSLAX46Y46*%
G04 Gerber Fmt 4.6, Leading zero omitted, Abs format (unit mm)*
G04 Created by KiCad (PCBNEW 9.0.7) date 2026-09-05 12:01:45*
%MOMM*%
%LPD*%
G01*
G04 APERTURE LIST*
G04 Aperture macros list*
%AMRoundRect*
0 Rectangle with rounded corners*
0 $1 Rounding radius*
0 $2 $3 $4 $5 $6 $7 $8 $9 X,Y pos of 4 corners*
0 Add a 4 corners polygon primitive as box body*
4,1,4,$2,$3,$4,$5,$6,$7,$8,$9,$2,$3,0*
0 Add four circle primitives for the rounded corners*
1,1,$1+$1,$2,$3*
1,1,$1+$1,$4,$5*
1,1,$1+$1,$6,$7*
1,1,$1+$1,$8,$9*
0 Add four rect primitives between the rounded corners*
20,1,$1+$1,$2,$3,$4,$5,0*
20,1,$1+$1,$4,$5,$6,$7,0*
20,1,$1+$1,$6,$7,$8,$9,0*
20,1,$1+$1,$8,$9,$2,$3,0*%
G04 Aperture macros list end*
%ADD10RoundRect,0.250000X0.450000X-0.350000X0.450000X0.350000X-0.450000X0.350000X-0.450000X-0.350000X0*%
%ADD11C,0.650000*%
%ADD12RoundRect,0.150000X-0.150000X-0.425000X0.150000X-0.425000X0.150000X0.425000X-0.150000X0.425000X0*%
%ADD13RoundRect,0.075000X-0.075000X-0.500000X0.075000X-0.500000X0.075000X0.500000X-0.075000X0.500000X0*%
%ADD14O,1.000000X2.100000*%
%ADD15O,1.000000X1.800000*%
%ADD16RoundRect,0.155000X-0.212500X-0.155000X0.212500X-0.155000X0.212500X0.155000X-0.212500X0.155000X0*%
%ADD17RoundRect,0.175000X-0.525000X-1.025000X0.525000X-1.025000X0.525000X1.025000X-0.525000X1.025000X0*%
%ADD18RoundRect,0.175000X1.025000X-0.525000X1.025000X0.525000X-1.025000X0.525000X-1.025000X-0.525000X0*%
%ADD19RoundRect,0.175000X0.525000X1.025000X-0.525000X1.025000X-0.525000X-1.025000X0.525000X-1.025000X0*%
%ADD20RoundRect,0.750000X0.750000X2.250000X-0.750000X2.250000X-0.750000X-2.250000X0.750000X-2.250000X0*%
%ADD21R,1.000000X0.900000*%
%ADD22RoundRect,0.155000X0.212500X0.155000X-0.212500X0.155000X-0.212500X-0.155000X0.212500X-0.155000X0*%
%ADD23RoundRect,0.050500X-0.281500X-0.151500X0.281500X-0.151500X0.281500X0.151500X-0.281500X0.151500X0*%
%ADD24RoundRect,0.250001X-0.872499X-0.944999X0.872499X-0.944999X0.872499X0.944999X-0.872499X0.944999X0*%
%ADD25RoundRect,0.102000X1.387500X1.387500X-1.387500X1.387500X-1.387500X-1.387500X1.387500X-1.387500X0*%
%ADD26C,2.979000*%
G04 APERTURE END LIST*
D10*
%TO.C,R4*%
X91643200Y-147304000D03*
X91643200Y-145304000D03*
%TD*%
%TO.C,R5*%
X89712800Y-147304000D03*
X89712800Y-145304000D03*
%TD*%
D11*
%TO.C,J2*%
X90175600Y-150999400D03*
X95955600Y-150999400D03*
D12*
X89865600Y-149924400D03*
X90665600Y-149924400D03*
D13*
X91815600Y-149924400D03*
X92815600Y-149924400D03*
X93315600Y-149924400D03*
X94315600Y-149924400D03*
D12*
X95465600Y-149924400D03*
X96265600Y-149924400D03*
X96265600Y-149924400D03*
X95465600Y-149924400D03*
D13*
X94815600Y-149924400D03*
X93815600Y-149924400D03*
X92315600Y-149924400D03*
X91315600Y-149924400D03*
D12*
X90665600Y-149924400D03*
X89865600Y-149924400D03*
D14*
X88745600Y-150499400D03*
D15*
X88745600Y-154679400D03*
D14*
X97385600Y-150499400D03*
D15*
X97385600Y-154679400D03*
%TD*%
D16*
%TO.C,C1*%
X107303700Y-147269200D03*
X108438700Y-147269200D03*
%TD*%
D10*
%TO.C,R3*%
X93573600Y-147304000D03*
X93573600Y-145304000D03*
%TD*%
D16*
%TO.C,C2*%
X107303700Y-146050000D03*
X108438700Y-146050000D03*
%TD*%
%TO.C,C4*%
X109538900Y-147269200D03*
X110673900Y-147269200D03*
%TD*%
%TO.C,C8*%
X109488100Y-144881600D03*
X110623100Y-144881600D03*
%TD*%
D17*
%TO.C,MOD-1*%
X96138400Y-143093600D03*
X98438400Y-143093600D03*
X100738400Y-143093600D03*
X103038400Y-143093600D03*
X105338400Y-143093600D03*
X107638400Y-143093600D03*
X109938400Y-143093600D03*
X112238400Y-143093600D03*
D18*
X120538400Y-134393600D03*
X120538400Y-131893600D03*
X120538400Y-120393600D03*
X120538400Y-117893600D03*
D19*
X105338400Y-110093600D03*
X102838400Y-110093600D03*
D18*
X87538400Y-117893600D03*
X87538400Y-120393600D03*
X87538400Y-131893600D03*
X87538400Y-134393600D03*
%TD*%
D20*
%TO.C,-*%
X121716800Y-153924000D03*
%TD*%
D21*
%TO.C,SW1*%
X103974800Y-145168400D03*
X103974800Y-149268400D03*
X102374800Y-145168400D03*
X102374800Y-149268400D03*
%TD*%
D22*
%TO.C,C7*%
X108438700Y-144881600D03*
X107303700Y-144881600D03*
%TD*%
D23*
%TO.C,D2*%
X99302000Y-147574000D03*
X99302000Y-148274000D03*
X100342000Y-147924000D03*
%TD*%
D20*
%TO.C,J1*%
X116027200Y-153924000D03*
%TD*%
D24*
%TO.C,C5*%
X114485700Y-148793200D03*
X119600700Y-148793200D03*
%TD*%
D16*
%TO.C,C3*%
X109538900Y-146050000D03*
X110673900Y-146050000D03*
%TD*%
D24*
%TO.C,C6*%
X114485700Y-144983200D03*
X119600700Y-144983200D03*
%TD*%
D25*
%TO.C,S1*%
X111024400Y-153771600D03*
D26*
X106324400Y-153771600D03*
X101624400Y-153771600D03*
%TD*%
M02*
