%TF.GenerationSoftware,KiCad,Pcbnew,9.0.7*%
%TF.CreationDate,2026-09-05T12:55:16+02:00*%
%TF.ProjectId,antena-wifi,616e7465-6e61-42d7-9769-66692e6b6963,1*%
%TF.SameCoordinates,Original*%
%TF.FileFunction,Copper,L2,Bot*%
%TF.FilePolarity,Positive*%
%FSLAX46Y46*%
G04 Gerber Fmt 4.6, Leading zero omitted, Abs format (unit mm)*
G04 Created by KiCad (PCBNEW 9.0.7) date 2026-09-05 12:55:16*
%MOMM*%
%LPD*%
G01*
G04 APERTURE LIST*
%TA.AperFunction,HeatsinkPad*%
%ADD10O,1.000000X2.100000*%
%TD*%
%TA.AperFunction,HeatsinkPad*%
%ADD11O,1.000000X1.800000*%
%TD*%
%TA.AperFunction,ComponentPad*%
%ADD12R,2.775000X2.775000*%
%TD*%
%TA.AperFunction,ComponentPad*%
%ADD13C,2.775000*%
%TD*%
%TA.AperFunction,ViaPad*%
%ADD14C,0.600000*%
%TD*%
%TA.AperFunction,Conductor*%
%ADD15C,0.200000*%
%TD*%
G04 APERTURE END LIST*
D10*
%TO.P,J2,S1,SHIELD*%
%TO.N,Net-(J2-SHIELD)*%
X88745600Y-150499400D03*
D11*
X88745600Y-154679400D03*
D10*
X97385600Y-150499400D03*
D11*
X97385600Y-154679400D03*
%TD*%
D12*
%TO.P,S1,1*%
%TO.N,/V_batt*%
X111024400Y-153771600D03*
D13*
%TO.P,S1,2*%
%TO.N,/V_in*%
X106324400Y-153771600D03*
%TO.P,S1,3*%
%TO.N,/V_usb*%
X101624400Y-153771600D03*
%TD*%
D14*
%TO.N,GND*%
X88595200Y-145643600D03*
X103428800Y-146202400D03*
X96266000Y-144627600D03*
X122224800Y-150418800D03*
X91643200Y-144359200D03*
X96774000Y-148844000D03*
X111404400Y-144881600D03*
X87538400Y-130769200D03*
X106324400Y-144881600D03*
X103428800Y-148590000D03*
X104140000Y-144373600D03*
X120538400Y-116789200D03*
X89509600Y-152298400D03*
X120497600Y-130759200D03*
X100342000Y-148945600D03*
X120538400Y-121412000D03*
X121259600Y-144424400D03*
X121208800Y-145745200D03*
X101803200Y-110093600D03*
X106426000Y-110093600D03*
X112268000Y-144881600D03*
X111455200Y-147269200D03*
X111455200Y-146050000D03*
X93116400Y-144359200D03*
X87528400Y-121462800D03*
X106324400Y-146050000D03*
X87538400Y-135483600D03*
X121259600Y-148082000D03*
X106273600Y-147269200D03*
X121259600Y-149352000D03*
X87528400Y-116890800D03*
X120538400Y-135432800D03*
%TO.N,Net-(J2-SHIELD)*%
X96418400Y-146659600D03*
X94565600Y-146456400D03*
X88493600Y-147726400D03*
X87579200Y-150114000D03*
%TD*%
D15*
%TO.N,Net-(J2-SHIELD)*%
X94768800Y-146659600D02*
X96418400Y-146659600D01*
X88493600Y-147726400D02*
X88493600Y-149199600D01*
X94565600Y-146456400D02*
X94768800Y-146659600D01*
X88493600Y-149199600D02*
X87579200Y-150114000D01*
%TD*%
%TA.AperFunction,Conductor*%
%TO.N,GND*%
G36*
X123828788Y-107238642D02*
G01*
X123895801Y-107258412D01*
X123941488Y-107311275D01*
X123952626Y-107362011D01*
X124160034Y-148138432D01*
X124160036Y-148139061D01*
X124160135Y-155400405D01*
X124160135Y-155443641D01*
X124159829Y-155452347D01*
X124143672Y-155681909D01*
X124141233Y-155699148D01*
X124093998Y-155919905D01*
X124089169Y-155936633D01*
X124011477Y-156148604D01*
X124004352Y-156164491D01*
X123897736Y-156363488D01*
X123888457Y-156378219D01*
X123755022Y-156560320D01*
X123743770Y-156573608D01*
X123586140Y-156735228D01*
X123573138Y-156746808D01*
X123394431Y-156884751D01*
X123379936Y-156894396D01*
X123183659Y-157005955D01*
X123167955Y-157013474D01*
X122957999Y-157096437D01*
X122941397Y-157101683D01*
X122721886Y-157154421D01*
X122704713Y-157157290D01*
X122567188Y-157170430D01*
X122555078Y-157170992D01*
X85296971Y-157076067D01*
X85291532Y-157075078D01*
X85288442Y-157075751D01*
X85253955Y-157068249D01*
X85141018Y-157026127D01*
X85124928Y-157018779D01*
X85024294Y-156963829D01*
X84923666Y-156908881D01*
X84908783Y-156899316D01*
X84725206Y-156761892D01*
X84711835Y-156750306D01*
X84549693Y-156588164D01*
X84538107Y-156574793D01*
X84400683Y-156391216D01*
X84391121Y-156376339D01*
X84341438Y-156285352D01*
X84326273Y-156226189D01*
X84324078Y-155148395D01*
X88045099Y-155148395D01*
X88072018Y-155283722D01*
X88072021Y-155283732D01*
X88124821Y-155411204D01*
X88124828Y-155411217D01*
X88201485Y-155525941D01*
X88201488Y-155525945D01*
X88299054Y-155623511D01*
X88299058Y-155623514D01*
X88413782Y-155700171D01*
X88413795Y-155700178D01*
X88541267Y-155752978D01*
X88541272Y-155752980D01*
X88541276Y-155752980D01*
X88541277Y-155752981D01*
X88676604Y-155779900D01*
X88676607Y-155779900D01*
X88814595Y-155779900D01*
X88905641Y-155761789D01*
X88949928Y-155752980D01*
X89077411Y-155700175D01*
X89192142Y-155623514D01*
X89289714Y-155525942D01*
X89366375Y-155411211D01*
X89419180Y-155283728D01*
X89429297Y-155232866D01*
X89446100Y-155148395D01*
X96685099Y-155148395D01*
X96712018Y-155283722D01*
X96712021Y-155283732D01*
X96764821Y-155411204D01*
X96764828Y-155411217D01*
X96841485Y-155525941D01*
X96841488Y-155525945D01*
X96939054Y-155623511D01*
X96939058Y-155623514D01*
X97053782Y-155700171D01*
X97053795Y-155700178D01*
X97181267Y-155752978D01*
X97181272Y-155752980D01*
X97181276Y-155752980D01*
X97181277Y-155752981D01*
X97316604Y-155779900D01*
X97316607Y-155779900D01*
X97454595Y-155779900D01*
X97545641Y-155761789D01*
X97589928Y-155752980D01*
X97717411Y-155700175D01*
X97832142Y-155623514D01*
X97929714Y-155525942D01*
X98006375Y-155411211D01*
X98059180Y-155283728D01*
X98069297Y-155232866D01*
X98086100Y-155148395D01*
X98086100Y-154210404D01*
X98059181Y-154075077D01*
X98059180Y-154075076D01*
X98059180Y-154075072D01*
X98059178Y-154075067D01*
X98006378Y-153947595D01*
X98006371Y-153947582D01*
X97929714Y-153832858D01*
X97929711Y-153832854D01*
X97832143Y-153735286D01*
X97717417Y-153658628D01*
X97717404Y-153658621D01*
X97688436Y-153646622D01*
X100036400Y-153646622D01*
X100036400Y-153896578D01*
X100044480Y-153947595D01*
X100075502Y-154143457D01*
X100152744Y-154381184D01*
X100266221Y-154603893D01*
X100413142Y-154806112D01*
X100589888Y-154982858D01*
X100792107Y-155129779D01*
X100884617Y-155176915D01*
X101014815Y-155243255D01*
X101014817Y-155243255D01*
X101014820Y-155243257D01*
X101252543Y-155320498D01*
X101499422Y-155359600D01*
X101499423Y-155359600D01*
X101749377Y-155359600D01*
X101749378Y-155359600D01*
X101996257Y-155320498D01*
X102233980Y-155243257D01*
X102456693Y-155129779D01*
X102658912Y-154982858D01*
X102835658Y-154806112D01*
X102982579Y-154603893D01*
X103096057Y-154381180D01*
X103173298Y-154143457D01*
X103212400Y-153896578D01*
X103212400Y-153646622D01*
X104736400Y-153646622D01*
X104736400Y-153896578D01*
X104744480Y-153947595D01*
X104775502Y-154143457D01*
X104852744Y-154381184D01*
X104966221Y-154603893D01*
X105113142Y-154806112D01*
X105289888Y-154982858D01*
X105492107Y-155129779D01*
X105584617Y-155176915D01*
X105714815Y-155243255D01*
X105714817Y-155243255D01*
X105714820Y-155243257D01*
X105952543Y-155320498D01*
X106199422Y-155359600D01*
X106199423Y-155359600D01*
X106449377Y-155359600D01*
X106449378Y-155359600D01*
X106696257Y-155320498D01*
X106933980Y-155243257D01*
X107156693Y-155129779D01*
X107358912Y-154982858D01*
X107535658Y-154806112D01*
X107682579Y-154603893D01*
X107796057Y-154381180D01*
X107873298Y-154143457D01*
X107912400Y-153896578D01*
X107912400Y-153646622D01*
X107873298Y-153399743D01*
X107796057Y-153162020D01*
X107796055Y-153162017D01*
X107796055Y-153162015D01*
X107682578Y-152939306D01*
X107535658Y-152737088D01*
X107358912Y-152560342D01*
X107156693Y-152413421D01*
X107060381Y-152364347D01*
X109436400Y-152364347D01*
X109436400Y-155178852D01*
X109448031Y-155237329D01*
X109448032Y-155237330D01*
X109492347Y-155303652D01*
X109558669Y-155347967D01*
X109558670Y-155347968D01*
X109617147Y-155359599D01*
X109617150Y-155359600D01*
X109617152Y-155359600D01*
X112431650Y-155359600D01*
X112431651Y-155359599D01*
X112446468Y-155356652D01*
X112490129Y-155347968D01*
X112490129Y-155347967D01*
X112490131Y-155347967D01*
X112556452Y-155303652D01*
X112600767Y-155237331D01*
X112600767Y-155237329D01*
X112600768Y-155237329D01*
X112612399Y-155178852D01*
X112612400Y-155178850D01*
X112612400Y-152364349D01*
X112612399Y-152364347D01*
X112600768Y-152305870D01*
X112600767Y-152305869D01*
X112556452Y-152239547D01*
X112490130Y-152195232D01*
X112490129Y-152195231D01*
X112431652Y-152183600D01*
X112431648Y-152183600D01*
X109617152Y-152183600D01*
X109617147Y-152183600D01*
X109558670Y-152195231D01*
X109558669Y-152195232D01*
X109492347Y-152239547D01*
X109448032Y-152305869D01*
X109448031Y-152305870D01*
X109436400Y-152364347D01*
X107060381Y-152364347D01*
X106933984Y-152299944D01*
X106696257Y-152222702D01*
X106522825Y-152195233D01*
X106449378Y-152183600D01*
X106199422Y-152183600D01*
X106125981Y-152195232D01*
X105952542Y-152222702D01*
X105714815Y-152299944D01*
X105492106Y-152413421D01*
X105376733Y-152497244D01*
X105289888Y-152560342D01*
X105289886Y-152560344D01*
X105289885Y-152560344D01*
X105113144Y-152737085D01*
X105113144Y-152737086D01*
X105113142Y-152737088D01*
X105050044Y-152823933D01*
X104966221Y-152939306D01*
X104852744Y-153162015D01*
X104775502Y-153399742D01*
X104775502Y-153399743D01*
X104736400Y-153646622D01*
X103212400Y-153646622D01*
X103173298Y-153399743D01*
X103096057Y-153162020D01*
X103096055Y-153162017D01*
X103096055Y-153162015D01*
X102982578Y-152939306D01*
X102835658Y-152737088D01*
X102658912Y-152560342D01*
X102456693Y-152413421D01*
X102233984Y-152299944D01*
X101996257Y-152222702D01*
X101822825Y-152195233D01*
X101749378Y-152183600D01*
X101499422Y-152183600D01*
X101425981Y-152195232D01*
X101252542Y-152222702D01*
X101014815Y-152299944D01*
X100792106Y-152413421D01*
X100676733Y-152497244D01*
X100589888Y-152560342D01*
X100589886Y-152560344D01*
X100589885Y-152560344D01*
X100413144Y-152737085D01*
X100413144Y-152737086D01*
X100413142Y-152737088D01*
X100350044Y-152823933D01*
X100266221Y-152939306D01*
X100152744Y-153162015D01*
X100075502Y-153399742D01*
X100075502Y-153399743D01*
X100036400Y-153646622D01*
X97688436Y-153646622D01*
X97589932Y-153605821D01*
X97589922Y-153605818D01*
X97454595Y-153578900D01*
X97454593Y-153578900D01*
X97316607Y-153578900D01*
X97316605Y-153578900D01*
X97181277Y-153605818D01*
X97181267Y-153605821D01*
X97053795Y-153658621D01*
X97053782Y-153658628D01*
X96939058Y-153735285D01*
X96939054Y-153735288D01*
X96841488Y-153832854D01*
X96841485Y-153832858D01*
X96764828Y-153947582D01*
X96764821Y-153947595D01*
X96712021Y-154075067D01*
X96712018Y-154075077D01*
X96685100Y-154210404D01*
X96685100Y-154210407D01*
X96685100Y-155148393D01*
X96685100Y-155148395D01*
X96685099Y-155148395D01*
X89446100Y-155148395D01*
X89446100Y-154210404D01*
X89419181Y-154075077D01*
X89419180Y-154075076D01*
X89419180Y-154075072D01*
X89419178Y-154075067D01*
X89366378Y-153947595D01*
X89366371Y-153947582D01*
X89289714Y-153832858D01*
X89289711Y-153832854D01*
X89192145Y-153735288D01*
X89192141Y-153735285D01*
X89077417Y-153658628D01*
X89077404Y-153658621D01*
X88949932Y-153605821D01*
X88949922Y-153605818D01*
X88814595Y-153578900D01*
X88814593Y-153578900D01*
X88676607Y-153578900D01*
X88676605Y-153578900D01*
X88541277Y-153605818D01*
X88541267Y-153605821D01*
X88413795Y-153658621D01*
X88413782Y-153658628D01*
X88299058Y-153735285D01*
X88299054Y-153735288D01*
X88201488Y-153832854D01*
X88201485Y-153832858D01*
X88124828Y-153947582D01*
X88124821Y-153947595D01*
X88072021Y-154075067D01*
X88072018Y-154075077D01*
X88045100Y-154210404D01*
X88045100Y-154210407D01*
X88045100Y-155148393D01*
X88045100Y-155148395D01*
X88045099Y-155148395D01*
X84324078Y-155148395D01*
X84313691Y-150048108D01*
X87078700Y-150048108D01*
X87078700Y-150179891D01*
X87112808Y-150307187D01*
X87145754Y-150364250D01*
X87178700Y-150421314D01*
X87271886Y-150514500D01*
X87386014Y-150580392D01*
X87513308Y-150614500D01*
X87513310Y-150614500D01*
X87645090Y-150614500D01*
X87645092Y-150614500D01*
X87772386Y-150580392D01*
X87859102Y-150530326D01*
X87926999Y-150513854D01*
X87993026Y-150536706D01*
X88036217Y-150591627D01*
X88045100Y-150637714D01*
X88045100Y-151118393D01*
X88045100Y-151118395D01*
X88045099Y-151118395D01*
X88072018Y-151253722D01*
X88072021Y-151253732D01*
X88124821Y-151381204D01*
X88124828Y-151381217D01*
X88201485Y-151495941D01*
X88201488Y-151495945D01*
X88299054Y-151593511D01*
X88299058Y-151593514D01*
X88413782Y-151670171D01*
X88413795Y-151670178D01*
X88541267Y-151722978D01*
X88541272Y-151722980D01*
X88541276Y-151722980D01*
X88541277Y-151722981D01*
X88676604Y-151749900D01*
X88676607Y-151749900D01*
X88814595Y-151749900D01*
X88905641Y-151731789D01*
X88949928Y-151722980D01*
X89077411Y-151670175D01*
X89192142Y-151593514D01*
X89289714Y-151495942D01*
X89366375Y-151381211D01*
X89419180Y-151253728D01*
X89434953Y-151174433D01*
X89467337Y-151112522D01*
X89528053Y-151077948D01*
X89597823Y-151081687D01*
X89654495Y-151122553D01*
X89676344Y-151166528D01*
X89678462Y-151174432D01*
X89685912Y-151202237D01*
X89685913Y-151202238D01*
X89755092Y-151322061D01*
X89755094Y-151322064D01*
X89755095Y-151322065D01*
X89852935Y-151419905D01*
X89972764Y-151489088D01*
X90106417Y-151524900D01*
X90106419Y-151524900D01*
X90244781Y-151524900D01*
X90244783Y-151524900D01*
X90378436Y-151489088D01*
X90498265Y-151419905D01*
X90596105Y-151322065D01*
X90665288Y-151202236D01*
X90701100Y-151068583D01*
X90701100Y-150930217D01*
X95430100Y-150930217D01*
X95430100Y-151068583D01*
X95465912Y-151202234D01*
X95465912Y-151202235D01*
X95465913Y-151202238D01*
X95535092Y-151322061D01*
X95535094Y-151322064D01*
X95535095Y-151322065D01*
X95632935Y-151419905D01*
X95752764Y-151489088D01*
X95886417Y-151524900D01*
X95886419Y-151524900D01*
X96024781Y-151524900D01*
X96024783Y-151524900D01*
X96158436Y-151489088D01*
X96278265Y-151419905D01*
X96376105Y-151322065D01*
X96445288Y-151202236D01*
X96454855Y-151166529D01*
X96491218Y-151106871D01*
X96554064Y-151076341D01*
X96623440Y-151084635D01*
X96677318Y-151129119D01*
X96696246Y-151174432D01*
X96712018Y-151253722D01*
X96712021Y-151253732D01*
X96764821Y-151381204D01*
X96764828Y-151381217D01*
X96841485Y-151495941D01*
X96841488Y-151495945D01*
X96939054Y-151593511D01*
X96939058Y-151593514D01*
X97053782Y-151670171D01*
X97053795Y-151670178D01*
X97181267Y-151722978D01*
X97181272Y-151722980D01*
X97181276Y-151722980D01*
X97181277Y-151722981D01*
X97316604Y-151749900D01*
X97316607Y-151749900D01*
X97454595Y-151749900D01*
X97545641Y-151731789D01*
X97589928Y-151722980D01*
X97717411Y-151670175D01*
X97832142Y-151593514D01*
X97929714Y-151495942D01*
X98006375Y-151381211D01*
X98059180Y-151253728D01*
X98069422Y-151202237D01*
X98086100Y-151118395D01*
X98086100Y-149880404D01*
X98059181Y-149745077D01*
X98059180Y-149745076D01*
X98059180Y-149745072D01*
X98059178Y-149745067D01*
X98006378Y-149617595D01*
X98006371Y-149617582D01*
X97929714Y-149502858D01*
X97929711Y-149502854D01*
X97832145Y-149405288D01*
X97832141Y-149405285D01*
X97717417Y-149328628D01*
X97717404Y-149328621D01*
X97589932Y-149275821D01*
X97589922Y-149275818D01*
X97454595Y-149248900D01*
X97454593Y-149248900D01*
X97316607Y-149248900D01*
X97316605Y-149248900D01*
X97181277Y-149275818D01*
X97181267Y-149275821D01*
X97053795Y-149328621D01*
X97053782Y-149328628D01*
X96939058Y-149405285D01*
X96939054Y-149405288D01*
X96841488Y-149502854D01*
X96841485Y-149502858D01*
X96764828Y-149617582D01*
X96764821Y-149617595D01*
X96712021Y-149745067D01*
X96712018Y-149745077D01*
X96685100Y-149880404D01*
X96685100Y-150752131D01*
X96665415Y-150819170D01*
X96612611Y-150864925D01*
X96543453Y-150874869D01*
X96479897Y-150845844D01*
X96449412Y-150803568D01*
X96449352Y-150803603D01*
X96449009Y-150803009D01*
X96446540Y-150799585D01*
X96445290Y-150796567D01*
X96376107Y-150676738D01*
X96376103Y-150676733D01*
X96278266Y-150578896D01*
X96278261Y-150578892D01*
X96158438Y-150509713D01*
X96158437Y-150509712D01*
X96158436Y-150509712D01*
X96024783Y-150473900D01*
X95886417Y-150473900D01*
X95752764Y-150509712D01*
X95752761Y-150509713D01*
X95632938Y-150578892D01*
X95632933Y-150578896D01*
X95535096Y-150676733D01*
X95535092Y-150676738D01*
X95465913Y-150796561D01*
X95465912Y-150796564D01*
X95430100Y-150930217D01*
X90701100Y-150930217D01*
X90665288Y-150796564D01*
X90596105Y-150676735D01*
X90498265Y-150578895D01*
X90498264Y-150578894D01*
X90498261Y-150578892D01*
X90378438Y-150509713D01*
X90378437Y-150509712D01*
X90378436Y-150509712D01*
X90244783Y-150473900D01*
X90106417Y-150473900D01*
X89972764Y-150509712D01*
X89972761Y-150509713D01*
X89852938Y-150578892D01*
X89852933Y-150578896D01*
X89755096Y-150676733D01*
X89755092Y-150676738D01*
X89685909Y-150796567D01*
X89684660Y-150799585D01*
X89682924Y-150801739D01*
X89681848Y-150803603D01*
X89681557Y-150803435D01*
X89640819Y-150853988D01*
X89574524Y-150876052D01*
X89506825Y-150858772D01*
X89459215Y-150807634D01*
X89446100Y-150752131D01*
X89446100Y-149880404D01*
X89419181Y-149745077D01*
X89419180Y-149745076D01*
X89419180Y-149745072D01*
X89419178Y-149745067D01*
X89366378Y-149617595D01*
X89366371Y-149617582D01*
X89289714Y-149502858D01*
X89289711Y-149502854D01*
X89192145Y-149405288D01*
X89192141Y-149405285D01*
X89077417Y-149328628D01*
X89077404Y-149328621D01*
X88949932Y-149275821D01*
X88949922Y-149275818D01*
X88893908Y-149264676D01*
X88831997Y-149232290D01*
X88797423Y-149171574D01*
X88794100Y-149143059D01*
X88794100Y-148185076D01*
X88813785Y-148118037D01*
X88830419Y-148097395D01*
X88894100Y-148033714D01*
X88959992Y-147919586D01*
X88994100Y-147792292D01*
X88994100Y-147660508D01*
X88959992Y-147533214D01*
X88894100Y-147419086D01*
X88800914Y-147325900D01*
X88743850Y-147292954D01*
X88686787Y-147260008D01*
X88623139Y-147242954D01*
X88559492Y-147225900D01*
X88427708Y-147225900D01*
X88300412Y-147260008D01*
X88186286Y-147325900D01*
X88186283Y-147325902D01*
X88093102Y-147419083D01*
X88093100Y-147419086D01*
X88027208Y-147533212D01*
X87993100Y-147660508D01*
X87993100Y-147792291D01*
X88027208Y-147919587D01*
X88060154Y-147976650D01*
X88093100Y-148033714D01*
X88093102Y-148033716D01*
X88156781Y-148097395D01*
X88190266Y-148158718D01*
X88193100Y-148185076D01*
X88193100Y-149023766D01*
X88173415Y-149090805D01*
X88156781Y-149111447D01*
X87691047Y-149577181D01*
X87629724Y-149610666D01*
X87603366Y-149613500D01*
X87513308Y-149613500D01*
X87386012Y-149647608D01*
X87271886Y-149713500D01*
X87271883Y-149713502D01*
X87178702Y-149806683D01*
X87178700Y-149806686D01*
X87112808Y-149920812D01*
X87078700Y-150048108D01*
X84313691Y-150048108D01*
X84306242Y-146390508D01*
X94065100Y-146390508D01*
X94065100Y-146522291D01*
X94099208Y-146649587D01*
X94132154Y-146706650D01*
X94165100Y-146763714D01*
X94258286Y-146856900D01*
X94372414Y-146922792D01*
X94499708Y-146956900D01*
X94499710Y-146956900D01*
X94631490Y-146956900D01*
X94631492Y-146956900D01*
X94642300Y-146954004D01*
X94706488Y-146954004D01*
X94729238Y-146960100D01*
X94808362Y-146960100D01*
X95959724Y-146960100D01*
X96026763Y-146979785D01*
X96047405Y-146996419D01*
X96111086Y-147060100D01*
X96225214Y-147125992D01*
X96352508Y-147160100D01*
X96352510Y-147160100D01*
X96484290Y-147160100D01*
X96484292Y-147160100D01*
X96611586Y-147125992D01*
X96725714Y-147060100D01*
X96818900Y-146966914D01*
X96884792Y-146852786D01*
X96918900Y-146725492D01*
X96918900Y-146593708D01*
X96884792Y-146466414D01*
X96818900Y-146352286D01*
X96725714Y-146259100D01*
X96668650Y-146226154D01*
X96611587Y-146193208D01*
X96547939Y-146176154D01*
X96484292Y-146159100D01*
X96352508Y-146159100D01*
X96225212Y-146193208D01*
X96111086Y-146259100D01*
X96111083Y-146259102D01*
X96047405Y-146322781D01*
X95986082Y-146356266D01*
X95959724Y-146359100D01*
X95152833Y-146359100D01*
X95085794Y-146339415D01*
X95040039Y-146286611D01*
X95033059Y-146267195D01*
X95031993Y-146263218D01*
X95031992Y-146263214D01*
X94966100Y-146149086D01*
X94872914Y-146055900D01*
X94815850Y-146022954D01*
X94758787Y-145990008D01*
X94695139Y-145972954D01*
X94631492Y-145955900D01*
X94499708Y-145955900D01*
X94372412Y-145990008D01*
X94258286Y-146055900D01*
X94258283Y-146055902D01*
X94165102Y-146149083D01*
X94165100Y-146149086D01*
X94099208Y-146263212D01*
X94065100Y-146390508D01*
X84306242Y-146390508D01*
X84300067Y-143358873D01*
X84297561Y-142128387D01*
X84941900Y-142128387D01*
X84941900Y-142351612D01*
X84976817Y-142572073D01*
X85045796Y-142784365D01*
X85135602Y-142960618D01*
X85147132Y-142983246D01*
X85278334Y-143163830D01*
X85436170Y-143321666D01*
X85616754Y-143452868D01*
X85710718Y-143500745D01*
X85815634Y-143554203D01*
X85815636Y-143554203D01*
X85815639Y-143554205D01*
X85929429Y-143591178D01*
X86027926Y-143623182D01*
X86248388Y-143658100D01*
X86248393Y-143658100D01*
X86471612Y-143658100D01*
X86692073Y-143623182D01*
X86904361Y-143554205D01*
X87103246Y-143452868D01*
X87283830Y-143321666D01*
X87441666Y-143163830D01*
X87572868Y-142983246D01*
X87674205Y-142784361D01*
X87743182Y-142572073D01*
X87758210Y-142477192D01*
X87778100Y-142351612D01*
X87778100Y-142129450D01*
X120500746Y-142129450D01*
X120500746Y-142352857D01*
X120520439Y-142477192D01*
X120535692Y-142573497D01*
X120604725Y-142785959D01*
X120694826Y-142962790D01*
X120706147Y-142985008D01*
X120837447Y-143165729D01*
X120837451Y-143165734D01*
X120995419Y-143323702D01*
X120995424Y-143323706D01*
X121043828Y-143358873D01*
X121176149Y-143455009D01*
X121375195Y-143556429D01*
X121587657Y-143625462D01*
X121701333Y-143643466D01*
X121808297Y-143660408D01*
X121808302Y-143660408D01*
X122031703Y-143660408D01*
X122129211Y-143644963D01*
X122252343Y-143625462D01*
X122464805Y-143556429D01*
X122663851Y-143455009D01*
X122844582Y-143323701D01*
X123002547Y-143165736D01*
X123133855Y-142985005D01*
X123235275Y-142785959D01*
X123304308Y-142573497D01*
X123323809Y-142450365D01*
X123339254Y-142352857D01*
X123339254Y-142129450D01*
X123319195Y-142002808D01*
X123304308Y-141908811D01*
X123235275Y-141696349D01*
X123133855Y-141497303D01*
X123082657Y-141426835D01*
X123002552Y-141316578D01*
X123002548Y-141316573D01*
X122844580Y-141158605D01*
X122844575Y-141158601D01*
X122663854Y-141027301D01*
X122663853Y-141027300D01*
X122663851Y-141027299D01*
X122464805Y-140925879D01*
X122464546Y-140925795D01*
X122252343Y-140856846D01*
X122031703Y-140821900D01*
X122031698Y-140821900D01*
X121808302Y-140821900D01*
X121808297Y-140821900D01*
X121587656Y-140856846D01*
X121375197Y-140925878D01*
X121176145Y-141027301D01*
X120995424Y-141158601D01*
X120995419Y-141158605D01*
X120837451Y-141316573D01*
X120837447Y-141316578D01*
X120706147Y-141497299D01*
X120604724Y-141696351D01*
X120535692Y-141908810D01*
X120500746Y-142129450D01*
X87778100Y-142129450D01*
X87778100Y-142128387D01*
X87743182Y-141907926D01*
X87674436Y-141696351D01*
X87674205Y-141695639D01*
X87674203Y-141695636D01*
X87674203Y-141695634D01*
X87620745Y-141590718D01*
X87572868Y-141496754D01*
X87441666Y-141316170D01*
X87283830Y-141158334D01*
X87103246Y-141027132D01*
X87082380Y-141016500D01*
X86904365Y-140925796D01*
X86692073Y-140856817D01*
X86471612Y-140821900D01*
X86471607Y-140821900D01*
X86248393Y-140821900D01*
X86248388Y-140821900D01*
X86027926Y-140856817D01*
X85815634Y-140925796D01*
X85616753Y-141027132D01*
X85513724Y-141101987D01*
X85436170Y-141158334D01*
X85436168Y-141158336D01*
X85436167Y-141158336D01*
X85278336Y-141316167D01*
X85278336Y-141316168D01*
X85278334Y-141316170D01*
X85278038Y-141316578D01*
X85147132Y-141496753D01*
X85045796Y-141695634D01*
X84976817Y-141907926D01*
X84941900Y-142128387D01*
X84297561Y-142128387D01*
X84235484Y-111648387D01*
X84941900Y-111648387D01*
X84941900Y-111871612D01*
X84976817Y-112092073D01*
X85045796Y-112304365D01*
X85090259Y-112391627D01*
X85147132Y-112503246D01*
X85278334Y-112683830D01*
X85436170Y-112841666D01*
X85616754Y-112972868D01*
X85710718Y-113020745D01*
X85815634Y-113074203D01*
X85815636Y-113074203D01*
X85815639Y-113074205D01*
X85929429Y-113111178D01*
X86027926Y-113143182D01*
X86248388Y-113178100D01*
X86248393Y-113178100D01*
X86471612Y-113178100D01*
X86692073Y-113143182D01*
X86904361Y-113074205D01*
X87103246Y-112972868D01*
X87283830Y-112841666D01*
X87441666Y-112683830D01*
X87572868Y-112503246D01*
X87674205Y-112304361D01*
X87743182Y-112092073D01*
X87758210Y-111997192D01*
X87778100Y-111871612D01*
X87778100Y-111720438D01*
X89158300Y-111720438D01*
X89158300Y-140755562D01*
X89171952Y-140806513D01*
X89178779Y-140831990D01*
X89178782Y-140831995D01*
X89218335Y-140900504D01*
X89218339Y-140900509D01*
X89218340Y-140900511D01*
X89274289Y-140956460D01*
X89274291Y-140956461D01*
X89274295Y-140956464D01*
X89342804Y-140996017D01*
X89342811Y-140996021D01*
X89419238Y-141016500D01*
X89419240Y-141016500D01*
X118962360Y-141016500D01*
X118962362Y-141016500D01*
X119038789Y-140996021D01*
X119107311Y-140956460D01*
X119163260Y-140900511D01*
X119202821Y-140831989D01*
X119223300Y-140755562D01*
X119223300Y-111720438D01*
X119203994Y-111648387D01*
X120501900Y-111648387D01*
X120501900Y-111871612D01*
X120536817Y-112092073D01*
X120605796Y-112304365D01*
X120650259Y-112391627D01*
X120707132Y-112503246D01*
X120838334Y-112683830D01*
X120996170Y-112841666D01*
X121176754Y-112972868D01*
X121270718Y-113020745D01*
X121375634Y-113074203D01*
X121375636Y-113074203D01*
X121375639Y-113074205D01*
X121489429Y-113111178D01*
X121587926Y-113143182D01*
X121808388Y-113178100D01*
X121808393Y-113178100D01*
X122031612Y-113178100D01*
X122252073Y-113143182D01*
X122464361Y-113074205D01*
X122663246Y-112972868D01*
X122843830Y-112841666D01*
X123001666Y-112683830D01*
X123132868Y-112503246D01*
X123234205Y-112304361D01*
X123303182Y-112092073D01*
X123318210Y-111997192D01*
X123338100Y-111871612D01*
X123338100Y-111648387D01*
X123303182Y-111427926D01*
X123234203Y-111215634D01*
X123180745Y-111110718D01*
X123132868Y-111016754D01*
X123001666Y-110836170D01*
X122843830Y-110678334D01*
X122663246Y-110547132D01*
X122464365Y-110445796D01*
X122252073Y-110376817D01*
X122031612Y-110341900D01*
X122031607Y-110341900D01*
X121808393Y-110341900D01*
X121808388Y-110341900D01*
X121587926Y-110376817D01*
X121375634Y-110445796D01*
X121176753Y-110547132D01*
X121073724Y-110621987D01*
X120996170Y-110678334D01*
X120996168Y-110678336D01*
X120996167Y-110678336D01*
X120838336Y-110836167D01*
X120838336Y-110836168D01*
X120838334Y-110836170D01*
X120781987Y-110913724D01*
X120707132Y-111016753D01*
X120605796Y-111215634D01*
X120536817Y-111427926D01*
X120501900Y-111648387D01*
X119203994Y-111648387D01*
X119202821Y-111644011D01*
X119202817Y-111644004D01*
X119163264Y-111575495D01*
X119163258Y-111575487D01*
X119107312Y-111519541D01*
X119107304Y-111519535D01*
X119038795Y-111479982D01*
X119038790Y-111479979D01*
X119013313Y-111473152D01*
X118962362Y-111459500D01*
X89498362Y-111459500D01*
X89419238Y-111459500D01*
X89381024Y-111469739D01*
X89342809Y-111479979D01*
X89342804Y-111479982D01*
X89274295Y-111519535D01*
X89274287Y-111519541D01*
X89218341Y-111575487D01*
X89218335Y-111575495D01*
X89178782Y-111644004D01*
X89178779Y-111644009D01*
X89169160Y-111679910D01*
X89158300Y-111720438D01*
X87778100Y-111720438D01*
X87778100Y-111648387D01*
X87743182Y-111427926D01*
X87674203Y-111215634D01*
X87620745Y-111110718D01*
X87572868Y-111016754D01*
X87441666Y-110836170D01*
X87283830Y-110678334D01*
X87103246Y-110547132D01*
X86904365Y-110445796D01*
X86692073Y-110376817D01*
X86471612Y-110341900D01*
X86471607Y-110341900D01*
X86248393Y-110341900D01*
X86248388Y-110341900D01*
X86027926Y-110376817D01*
X85815634Y-110445796D01*
X85616753Y-110547132D01*
X85513724Y-110621987D01*
X85436170Y-110678334D01*
X85436168Y-110678336D01*
X85436167Y-110678336D01*
X85278336Y-110836167D01*
X85278336Y-110836168D01*
X85278334Y-110836170D01*
X85221987Y-110913724D01*
X85147132Y-111016753D01*
X85045796Y-111215634D01*
X84976817Y-111427926D01*
X84941900Y-111648387D01*
X84235484Y-111648387D01*
X84226653Y-107312410D01*
X84246201Y-107245332D01*
X84298912Y-107199470D01*
X84350811Y-107188159D01*
X123828788Y-107238642D01*
G37*
%TD.AperFunction*%
%TD*%
M02*
