%TF.GenerationSoftware,KiCad,Pcbnew,9.0.7*%
%TF.CreationDate,2026-09-05T12:55:16+02:00*%
%TF.ProjectId,antena-wifi,616e7465-6e61-42d7-9769-66692e6b6963,1*%
%TF.SameCoordinates,Original*%
%TF.FileFunction,Profile,NP*%
%FSLAX46Y46*%
G04 Gerber Fmt 4.6, Leading zero omitted, Abs format (unit mm)*
G04 Created by KiCad (PCBNEW 9.0.7) date 2026-09-05 12:55:16*
%MOMM*%
%LPD*%
G01*
G04 APERTURE LIST*
%TA.AperFunction,Profile*%
%ADD10C,0.050000*%
%TD*%
G04 APERTURE END LIST*
D10*
X124460635Y-155448000D02*
X124460000Y-108712000D01*
X83820000Y-108712000D02*
X83820000Y-107188000D01*
X123037600Y-111760000D02*
G75*
G02*
X120802400Y-111760000I-1117600J0D01*
G01*
X120802400Y-111760000D02*
G75*
G02*
X123037600Y-111760000I1117600J0D01*
G01*
X87477600Y-111760000D02*
G75*
G02*
X85242400Y-111760000I-1117600J0D01*
G01*
X85242400Y-111760000D02*
G75*
G02*
X87477600Y-111760000I1117600J0D01*
G01*
X83820000Y-107188000D02*
G75*
G02*
X85852000Y-105156000I2032000J0D01*
G01*
X122428000Y-105156000D02*
G75*
G02*
X124460000Y-107188000I0J-2032000D01*
G01*
X83820000Y-108712000D02*
X83820000Y-155448000D01*
X123038754Y-142241154D02*
G75*
G02*
X120801246Y-142241154I-1118754J0D01*
G01*
X120801246Y-142241154D02*
G75*
G02*
X123038754Y-142241154I1118754J0D01*
G01*
X124460000Y-108712000D02*
X124460000Y-107188000D01*
X85852000Y-157480000D02*
G75*
G02*
X83820000Y-155448000I0J2032000D01*
G01*
X87477600Y-142240000D02*
G75*
G02*
X85242400Y-142240000I-1117600J0D01*
G01*
X85242400Y-142240000D02*
G75*
G02*
X87477600Y-142240000I1117600J0D01*
G01*
X124460635Y-155448000D02*
G75*
G02*
X122478800Y-157480000I-2032635J0D01*
G01*
X89458800Y-111760000D02*
X118922800Y-111760000D01*
X118922800Y-140716000D01*
X89458800Y-140716000D01*
X89458800Y-111760000D01*
X85852000Y-157480000D02*
X122478800Y-157480000D01*
X85852000Y-105156000D02*
X122428000Y-105156000D01*
M02*
