%TF.GenerationSoftware,KiCad,Pcbnew,9.0.7*%
%TF.CreationDate,2026-09-05T12:55:16+02:00*%
%TF.ProjectId,antena-wifi,616e7465-6e61-42d7-9769-66692e6b6963,1*%
%TF.SameCoordinates,Original*%
%TF.FileFunction,Copper,L1,Top*%
%TF.FilePolarity,Positive*%
%FSLAX46Y46*%
G04 Gerber Fmt 4.6, Leading zero omitted, Abs format (unit mm)*
G04 Created by KiCad (PCBNEW 9.0.7) date 2026-09-05 12:55:16*
%MOMM*%
%LPD*%
G01*
G04 APERTURE LIST*
G04 Aperture macros list*
%AMRoundRect*
0 Rectangle with rounded corners*
0 $1 Rounding radius*
0 $2 $3 $4 $5 $6 $7 $8 $9 X,Y pos of 4 corners*
0 Add a 4 corners polygon primitive as box body*
4,1,4,$2,$3,$4,$5,$6,$7,$8,$9,$2,$3,0*
0 Add four circle primitives for the rounded corners*
1,1,$1+$1,$2,$3*
1,1,$1+$1,$4,$5*
1,1,$1+$1,$6,$7*
1,1,$1+$1,$8,$9*
0 Add four rect primitives between the rounded corners*
20,1,$1+$1,$2,$3,$4,$5,0*
20,1,$1+$1,$4,$5,$6,$7,0*
20,1,$1+$1,$6,$7,$8,$9,0*
20,1,$1+$1,$8,$9,$2,$3,0*%
G04 Aperture macros list end*
%TA.AperFunction,SMDPad,CuDef*%
%ADD10RoundRect,0.250000X0.450000X-0.350000X0.450000X0.350000X-0.450000X0.350000X-0.450000X-0.350000X0*%
%TD*%
%TA.AperFunction,SMDPad,CuDef*%
%ADD11RoundRect,0.150000X-0.150000X-0.425000X0.150000X-0.425000X0.150000X0.425000X-0.150000X0.425000X0*%
%TD*%
%TA.AperFunction,SMDPad,CuDef*%
%ADD12RoundRect,0.075000X-0.075000X-0.500000X0.075000X-0.500000X0.075000X0.500000X-0.075000X0.500000X0*%
%TD*%
%TA.AperFunction,HeatsinkPad*%
%ADD13O,1.000000X2.100000*%
%TD*%
%TA.AperFunction,HeatsinkPad*%
%ADD14O,1.000000X1.800000*%
%TD*%
%TA.AperFunction,SMDPad,CuDef*%
%ADD15RoundRect,0.155000X-0.212500X-0.155000X0.212500X-0.155000X0.212500X0.155000X-0.212500X0.155000X0*%
%TD*%
%TA.AperFunction,SMDPad,CuDef*%
%ADD16RoundRect,0.175000X-0.525000X-1.025000X0.525000X-1.025000X0.525000X1.025000X-0.525000X1.025000X0*%
%TD*%
%TA.AperFunction,SMDPad,CuDef*%
%ADD17RoundRect,0.175000X1.025000X-0.525000X1.025000X0.525000X-1.025000X0.525000X-1.025000X-0.525000X0*%
%TD*%
%TA.AperFunction,SMDPad,CuDef*%
%ADD18RoundRect,0.175000X0.525000X1.025000X-0.525000X1.025000X-0.525000X-1.025000X0.525000X-1.025000X0*%
%TD*%
%TA.AperFunction,SMDPad,CuDef*%
%ADD19RoundRect,0.750000X0.750000X2.250000X-0.750000X2.250000X-0.750000X-2.250000X0.750000X-2.250000X0*%
%TD*%
%TA.AperFunction,SMDPad,CuDef*%
%ADD20R,1.000000X0.900000*%
%TD*%
%TA.AperFunction,SMDPad,CuDef*%
%ADD21RoundRect,0.155000X0.212500X0.155000X-0.212500X0.155000X-0.212500X-0.155000X0.212500X-0.155000X0*%
%TD*%
%TA.AperFunction,SMDPad,CuDef*%
%ADD22RoundRect,0.025000X-0.205000X-0.075000X0.205000X-0.075000X0.205000X0.075000X-0.205000X0.075000X0*%
%TD*%
%TA.AperFunction,SMDPad,CuDef*%
%ADD23RoundRect,0.250001X-0.872499X-0.944999X0.872499X-0.944999X0.872499X0.944999X-0.872499X0.944999X0*%
%TD*%
%TA.AperFunction,ComponentPad*%
%ADD24R,2.775000X2.775000*%
%TD*%
%TA.AperFunction,ComponentPad*%
%ADD25C,2.775000*%
%TD*%
%TA.AperFunction,ViaPad*%
%ADD26C,0.600000*%
%TD*%
%TA.AperFunction,Conductor*%
%ADD27C,1.000000*%
%TD*%
%TA.AperFunction,Conductor*%
%ADD28C,0.200000*%
%TD*%
%TA.AperFunction,Conductor*%
%ADD29C,0.800000*%
%TD*%
%TA.AperFunction,Conductor*%
%ADD30C,0.261900*%
%TD*%
%TA.AperFunction,Conductor*%
%ADD31C,0.300000*%
%TD*%
G04 APERTURE END LIST*
D10*
%TO.P,R4,1*%
%TO.N,Net-(J2-CC1)*%
X91643200Y-147304000D03*
%TO.P,R4,2*%
%TO.N,GND*%
X91643200Y-145304000D03*
%TD*%
%TO.P,R5,1*%
%TO.N,Net-(J2-SHIELD)*%
X89712800Y-147304000D03*
%TO.P,R5,2*%
%TO.N,GND*%
X89712800Y-145304000D03*
%TD*%
D11*
%TO.P,J2,A1,GND*%
%TO.N,GND*%
X89865600Y-149924400D03*
%TO.P,J2,A4,VBUS*%
%TO.N,/V_usb*%
X90665600Y-149924400D03*
D12*
%TO.P,J2,A5,CC1*%
%TO.N,Net-(J2-CC1)*%
X91815600Y-149924400D03*
%TO.P,J2,A6,D+*%
%TO.N,/D+*%
X92815600Y-149924400D03*
%TO.P,J2,A7,D-*%
%TO.N,/D-*%
X93315600Y-149924400D03*
%TO.P,J2,A8,SBU1*%
%TO.N,unconnected-(J2-SBU1-PadA8)*%
X94315600Y-149924400D03*
D11*
%TO.P,J2,A9,VBUS*%
%TO.N,/V_usb*%
X95465600Y-149924400D03*
%TO.P,J2,A12,GND*%
%TO.N,GND*%
X96265600Y-149924400D03*
%TO.P,J2,B1,GND*%
X96265600Y-149924400D03*
%TO.P,J2,B4,VBUS*%
%TO.N,/V_usb*%
X95465600Y-149924400D03*
D12*
%TO.P,J2,B5,CC2*%
%TO.N,Net-(J2-CC2)*%
X94815600Y-149924400D03*
%TO.P,J2,B6,D+*%
%TO.N,/D+*%
X93815600Y-149924400D03*
%TO.P,J2,B7,D-*%
%TO.N,/D-*%
X92315600Y-149924400D03*
%TO.P,J2,B8,SBU2*%
%TO.N,unconnected-(J2-SBU2-PadB8)*%
X91315600Y-149924400D03*
D11*
%TO.P,J2,B9,VBUS*%
%TO.N,/V_usb*%
X90665600Y-149924400D03*
%TO.P,J2,B12,GND*%
%TO.N,GND*%
X89865600Y-149924400D03*
D13*
%TO.P,J2,S1,SHIELD*%
%TO.N,Net-(J2-SHIELD)*%
X88745600Y-150499400D03*
D14*
X88745600Y-154679400D03*
D13*
X97385600Y-150499400D03*
D14*
X97385600Y-154679400D03*
%TD*%
D15*
%TO.P,C1,1*%
%TO.N,GND*%
X107303700Y-147269200D03*
%TO.P,C1,2*%
%TO.N,/V_in*%
X108438700Y-147269200D03*
%TD*%
D10*
%TO.P,R3,1*%
%TO.N,Net-(J2-CC2)*%
X93573600Y-147304000D03*
%TO.P,R3,2*%
%TO.N,GND*%
X93573600Y-145304000D03*
%TD*%
D15*
%TO.P,C2,1*%
%TO.N,GND*%
X107303700Y-146050000D03*
%TO.P,C2,2*%
%TO.N,/V_in*%
X108438700Y-146050000D03*
%TD*%
%TO.P,C4,1*%
%TO.N,/V_in*%
X109538900Y-147269200D03*
%TO.P,C4,2*%
%TO.N,GND*%
X110673900Y-147269200D03*
%TD*%
%TO.P,C8,1*%
%TO.N,/V_in*%
X109488100Y-144881600D03*
%TO.P,C8,2*%
%TO.N,GND*%
X110623100Y-144881600D03*
%TD*%
D16*
%TO.P,MOD-1,1,1*%
%TO.N,GND*%
X96138400Y-143093600D03*
%TO.P,MOD-1,2,2*%
%TO.N,/D+*%
X98438400Y-143093600D03*
%TO.P,MOD-1,3,3*%
%TO.N,/D-*%
X100738400Y-143093600D03*
%TO.P,MOD-1,4,4*%
%TO.N,GND*%
X103038400Y-143093600D03*
%TO.P,MOD-1,5,5*%
%TO.N,Net-(MOD-1-Pad5)*%
X105338400Y-143093600D03*
%TO.P,MOD-1,6,6*%
%TO.N,/V_in*%
X107638400Y-143093600D03*
%TO.P,MOD-1,7,7*%
X109938400Y-143093600D03*
%TO.P,MOD-1,8,8*%
%TO.N,GND*%
X112238400Y-143093600D03*
D17*
%TO.P,MOD-1,9,9*%
X120538400Y-134393600D03*
%TO.P,MOD-1,10,10*%
X120538400Y-131893600D03*
%TO.P,MOD-1,11,11*%
X120538400Y-120393600D03*
%TO.P,MOD-1,12,12*%
X120538400Y-117893600D03*
D18*
%TO.P,MOD-1,13,13*%
X105338400Y-110093600D03*
%TO.P,MOD-1,14,14*%
X102838400Y-110093600D03*
D17*
%TO.P,MOD-1,15,15*%
X87538400Y-117893600D03*
%TO.P,MOD-1,16,16*%
X87538400Y-120393600D03*
%TO.P,MOD-1,17,17*%
X87538400Y-131893600D03*
%TO.P,MOD-1,18,18*%
X87538400Y-134393600D03*
%TD*%
D19*
%TO.P,-,1,Pin_1*%
%TO.N,GND*%
X121716800Y-153924000D03*
%TD*%
D20*
%TO.P,SW1,1,1*%
%TO.N,GND*%
X103416000Y-145270000D03*
X103416000Y-149370000D03*
%TO.P,SW1,2,2*%
%TO.N,Net-(MOD-1-Pad5)*%
X101816000Y-145270000D03*
X101816000Y-149370000D03*
%TD*%
D21*
%TO.P,C7,1*%
%TO.N,/V_in*%
X108438700Y-144881600D03*
%TO.P,C7,2*%
%TO.N,GND*%
X107303700Y-144881600D03*
%TD*%
D22*
%TO.P,D2,1,D+*%
%TO.N,/D+*%
X99302000Y-147574000D03*
%TO.P,D2,2,D-*%
%TO.N,/D-*%
X99302000Y-148274000D03*
%TO.P,D2,3,GND*%
%TO.N,GND*%
X100342000Y-147924000D03*
%TD*%
D19*
%TO.P,J1,1,Pin_1*%
%TO.N,/V_batt*%
X116027200Y-153924000D03*
%TD*%
D23*
%TO.P,C5,1*%
%TO.N,/V_in*%
X114485700Y-148793200D03*
%TO.P,C5,2*%
%TO.N,GND*%
X119600700Y-148793200D03*
%TD*%
D15*
%TO.P,C3,1*%
%TO.N,/V_in*%
X109538900Y-146050000D03*
%TO.P,C3,2*%
%TO.N,GND*%
X110673900Y-146050000D03*
%TD*%
D23*
%TO.P,C6,1*%
%TO.N,/V_in*%
X114485700Y-144983200D03*
%TO.P,C6,2*%
%TO.N,GND*%
X119600700Y-144983200D03*
%TD*%
D24*
%TO.P,S1,1*%
%TO.N,/V_batt*%
X111024400Y-153771600D03*
D25*
%TO.P,S1,2*%
%TO.N,/V_in*%
X106324400Y-153771600D03*
%TO.P,S1,3*%
%TO.N,/V_usb*%
X101624400Y-153771600D03*
%TD*%
D26*
%TO.N,GND*%
X88595200Y-145643600D03*
X103428800Y-146202400D03*
X96266000Y-144627600D03*
X122224800Y-150418800D03*
X91643200Y-144359200D03*
X96774000Y-148844000D03*
X111404400Y-144881600D03*
X87538400Y-130769200D03*
X106324400Y-144881600D03*
X103428800Y-148590000D03*
X104140000Y-144373600D03*
X120538400Y-116789200D03*
X89509600Y-152298400D03*
X120497600Y-130759200D03*
X100342000Y-148945600D03*
X120538400Y-121412000D03*
X121259600Y-144424400D03*
X121208800Y-145745200D03*
X101803200Y-110093600D03*
X106426000Y-110093600D03*
X112268000Y-144881600D03*
X111455200Y-147269200D03*
X111455200Y-146050000D03*
X93116400Y-144359200D03*
X87528400Y-121462800D03*
X106324400Y-146050000D03*
X87538400Y-135483600D03*
X121259600Y-148082000D03*
X106273600Y-147269200D03*
X121259600Y-149352000D03*
X87528400Y-116890800D03*
X120538400Y-135432800D03*
%TO.N,Net-(J2-SHIELD)*%
X96418400Y-146659600D03*
X94565600Y-146456400D03*
X88493600Y-147726400D03*
X87579200Y-150114000D03*
%TD*%
D27*
%TO.N,/V_in*%
X108351200Y-144881600D02*
X108351200Y-143806400D01*
X109669400Y-147269200D02*
X109669400Y-148277400D01*
D28*
X109575600Y-143456400D02*
X109938400Y-143093600D01*
X108308200Y-144924600D02*
X108351200Y-144881600D01*
D27*
X110185200Y-148793200D02*
X114573200Y-148793200D01*
D28*
X109575600Y-145956200D02*
X109669400Y-146050000D01*
X114522400Y-145034000D02*
X114007400Y-145549000D01*
X114573200Y-148793200D02*
X114522400Y-148742400D01*
D27*
X109669400Y-146050000D02*
X109669400Y-147269200D01*
X109669400Y-148277400D02*
X110185200Y-148793200D01*
X109669400Y-147269200D02*
X108308200Y-147269200D01*
D28*
X114573200Y-144881600D02*
X114522400Y-144830800D01*
D27*
X108351200Y-143806400D02*
X107638400Y-143093600D01*
X108308200Y-147269200D02*
X108308200Y-146050000D01*
X109575600Y-144881600D02*
X109575600Y-145956200D01*
X108308200Y-148892200D02*
X106655600Y-150544800D01*
D28*
X106655600Y-153440400D02*
X106324400Y-153771600D01*
D27*
X106655600Y-150544800D02*
X106655600Y-153440400D01*
X108308200Y-146050000D02*
X108308200Y-144924600D01*
X108308200Y-147269200D02*
X108308200Y-148892200D01*
X109575600Y-144881600D02*
X109575600Y-143456400D01*
X114522400Y-148742400D02*
X114522400Y-145034000D01*
D28*
%TO.N,GND*%
X120538400Y-135432800D02*
X120538400Y-134393600D01*
X103416000Y-145270000D02*
X103416000Y-146189600D01*
X96774000Y-148844000D02*
X96265600Y-149352400D01*
X103416000Y-149370000D02*
X103416000Y-148602800D01*
X103038400Y-143093600D02*
X103038400Y-143272000D01*
X107303700Y-147269200D02*
X106273600Y-147269200D01*
X87538400Y-117893600D02*
X87538400Y-116900800D01*
D27*
X121208800Y-145745200D02*
X121056400Y-145592800D01*
D28*
X120538400Y-131023200D02*
X120538400Y-131893600D01*
X89712800Y-145304000D02*
X88934800Y-145304000D01*
X120497600Y-130759200D02*
X120497600Y-130982400D01*
X89865600Y-149924400D02*
X89509600Y-150280400D01*
X87538400Y-120393600D02*
X87538400Y-121452800D01*
D27*
X120700800Y-144983200D02*
X121259600Y-144424400D01*
X121716800Y-150926800D02*
X122224800Y-150418800D01*
D28*
X119600700Y-144983200D02*
X119499100Y-144983200D01*
X87538400Y-130769200D02*
X87538400Y-131893600D01*
X93116400Y-144359200D02*
X93116400Y-144613200D01*
X107303700Y-146050000D02*
X106324400Y-146050000D01*
X100342000Y-148945600D02*
X100342000Y-147924000D01*
D27*
X121158000Y-148793200D02*
X119600700Y-148793200D01*
X121716800Y-153924000D02*
X121716800Y-150926800D01*
X120700800Y-148793200D02*
X121259600Y-149352000D01*
D28*
X121716800Y-153924000D02*
X120853200Y-153060400D01*
X120538400Y-116789200D02*
X120538400Y-117893600D01*
X120538400Y-121412000D02*
X120538400Y-120393600D01*
X88934800Y-145304000D02*
X88595200Y-145643600D01*
D27*
X120853200Y-145592800D02*
X120243600Y-144983200D01*
D28*
X121462800Y-151180800D02*
X121716800Y-151434800D01*
X93573600Y-145070400D02*
X93573600Y-145304000D01*
X120497600Y-130982400D02*
X120538400Y-131023200D01*
D27*
X119600700Y-144983200D02*
X120700800Y-144983200D01*
X119600700Y-148793200D02*
X120700800Y-148793200D01*
D28*
X107303700Y-144881600D02*
X106324400Y-144881600D01*
X103038400Y-143093600D02*
X103038400Y-143373600D01*
X101803200Y-110093600D02*
X102838400Y-110093600D01*
X89509600Y-150280400D02*
X89509600Y-152298400D01*
X110623100Y-144881600D02*
X111404400Y-144881600D01*
D27*
X120243600Y-144983200D02*
X119600700Y-144983200D01*
D28*
X87538400Y-116900800D02*
X87528400Y-116890800D01*
X103416000Y-146189600D02*
X103428800Y-146202400D01*
X110673900Y-146050000D02*
X111455200Y-146050000D01*
D27*
X121259600Y-148082000D02*
X121259600Y-148691600D01*
D28*
X96266000Y-143221200D02*
X96138400Y-143093600D01*
D27*
X121056400Y-145592800D02*
X120853200Y-145592800D01*
D28*
X87538400Y-121452800D02*
X87528400Y-121462800D01*
X96266000Y-144627600D02*
X96266000Y-143221200D01*
D29*
X106324400Y-144881600D02*
X104648000Y-144881600D01*
D28*
X93116400Y-144613200D02*
X93573600Y-145070400D01*
X91643200Y-144359200D02*
X91643200Y-145304000D01*
X112238400Y-144852000D02*
X112268000Y-144881600D01*
D29*
X103416000Y-145270000D02*
X103416000Y-143471200D01*
D28*
X112238400Y-143093600D02*
X112238400Y-144852000D01*
X96265600Y-149352400D02*
X96265600Y-149924400D01*
X106426000Y-110093600D02*
X105338400Y-110093600D01*
X110673900Y-147269200D02*
X111455200Y-147269200D01*
X103416000Y-143471200D02*
X103038400Y-143093600D01*
D29*
X103038400Y-143272000D02*
X104140000Y-144373600D01*
D27*
X121259600Y-148691600D02*
X121158000Y-148793200D01*
D28*
X87538400Y-135483600D02*
X87538400Y-134393600D01*
D29*
X104648000Y-144881600D02*
X104140000Y-144373600D01*
D28*
X121716800Y-151434800D02*
X121716800Y-153924000D01*
X103416000Y-148602800D02*
X103428800Y-148590000D01*
D30*
%TO.N,/D-*%
X99302000Y-148274000D02*
X99113804Y-148274000D01*
X99009200Y-151942800D02*
X99009200Y-150759862D01*
X99872800Y-147703200D02*
X99302000Y-148274000D01*
D28*
X100666200Y-143093600D02*
X100738400Y-143093600D01*
D30*
X93433650Y-150566812D02*
X95622438Y-152755600D01*
X92547551Y-150731350D02*
X92315600Y-150499399D01*
X93269112Y-150731350D02*
X92547551Y-150731350D01*
X98196400Y-152755600D02*
X99009200Y-151942800D01*
X92315600Y-150499399D02*
X92315600Y-149924400D01*
X93433650Y-150042450D02*
X93433650Y-150566812D01*
X99113804Y-148274000D02*
X99009200Y-148378604D01*
X100738400Y-143093600D02*
X99872800Y-143959200D01*
X99009200Y-148378604D02*
X99009200Y-150586480D01*
X99872800Y-143959200D02*
X99872800Y-147703200D01*
X93433650Y-150566812D02*
X93269112Y-150731350D01*
X93315600Y-149924400D02*
X93433650Y-150042450D01*
X95622438Y-152755600D02*
X98196400Y-152755600D01*
X99009200Y-150586480D02*
X99009200Y-150759862D01*
%TO.N,/D+*%
X98964900Y-147911100D02*
X98963486Y-147911100D01*
X98646300Y-150586480D02*
X98646300Y-150759862D01*
X93583649Y-149117450D02*
X93815600Y-149349401D01*
X95772756Y-152392700D02*
X98046082Y-152392700D01*
X98646300Y-148228286D02*
X98646300Y-150586480D01*
X98438400Y-143093600D02*
X99509900Y-144165100D01*
X93111378Y-149117450D02*
X93583649Y-149117450D01*
X93815600Y-149924400D02*
X93933650Y-149924400D01*
X93933650Y-150553594D02*
X95772756Y-152392700D01*
X93933650Y-149924400D02*
X93933650Y-150553594D01*
X98046082Y-152392700D02*
X98646300Y-151792482D01*
X98646300Y-151792482D02*
X98646300Y-150759862D01*
X93815600Y-149349401D02*
X93815600Y-149924400D01*
X99509900Y-147366100D02*
X99302000Y-147574000D01*
X99509900Y-144165100D02*
X99509900Y-147366100D01*
X99302000Y-147574000D02*
X98964900Y-147911100D01*
X92815600Y-149413228D02*
X93111378Y-149117450D01*
X98963486Y-147911100D02*
X98646300Y-148228286D01*
X92815600Y-149924400D02*
X92815600Y-149413228D01*
D29*
%TO.N,/V_usb*%
X90170000Y-148691600D02*
X87579200Y-148691600D01*
D27*
X87579200Y-144424400D02*
X88544400Y-143459200D01*
X94284800Y-156514800D02*
X100228400Y-156514800D01*
D28*
X95465600Y-149924400D02*
X95504000Y-149886000D01*
D27*
X88188800Y-156514800D02*
X87426800Y-155752800D01*
X87579200Y-148691600D02*
X87579200Y-144526000D01*
X86614000Y-149656800D02*
X87274400Y-148996400D01*
X86614000Y-154940000D02*
X86614000Y-149656800D01*
X95465600Y-145148000D02*
X95465600Y-149059600D01*
X87274400Y-155600400D02*
X86614000Y-154940000D01*
D29*
X95465600Y-149924400D02*
X95465600Y-149059600D01*
D27*
X94284800Y-156514800D02*
X88188800Y-156514800D01*
D29*
X90665600Y-149187200D02*
X90170000Y-148691600D01*
D27*
X88544400Y-143459200D02*
X93776800Y-143459200D01*
D28*
X87579200Y-144526000D02*
X87579200Y-144424400D01*
D29*
X90665600Y-149924400D02*
X90665600Y-149187200D01*
D27*
X93776800Y-143459200D02*
X95465600Y-145148000D01*
D28*
X101624400Y-155118800D02*
X101624400Y-153771600D01*
X90665600Y-149924400D02*
X90665600Y-150254000D01*
D31*
X90665600Y-149924400D02*
X90665600Y-150457200D01*
D27*
X87376000Y-148894800D02*
X87579200Y-148691600D01*
D28*
X90525600Y-149784400D02*
X90665600Y-149924400D01*
X87426800Y-155752800D02*
X87274400Y-155600400D01*
D27*
X100228400Y-156514800D02*
X101624400Y-155118800D01*
D28*
X101065600Y-153212800D02*
X101624400Y-153771600D01*
%TO.N,Net-(MOD-1-Pad5)*%
X102352806Y-141692600D02*
X103937400Y-141692600D01*
X103937400Y-141692600D02*
X105338400Y-143093600D01*
X101816000Y-149370000D02*
X101816000Y-145270000D01*
X101816000Y-145270000D02*
X101816000Y-144640400D01*
X101816000Y-144640400D02*
X101701600Y-144526000D01*
X101701600Y-142343806D02*
X102352806Y-141692600D01*
X101701600Y-144526000D02*
X101701600Y-142343806D01*
X105338400Y-143093600D02*
X105308400Y-143123600D01*
%TO.N,/V_batt*%
X115874800Y-153771600D02*
X116027200Y-153924000D01*
X111024400Y-153771600D02*
X111126000Y-153670000D01*
D27*
X111024400Y-153771600D02*
X115874800Y-153771600D01*
D28*
%TO.N,Net-(J2-SHIELD)*%
X97385600Y-147677600D02*
X97385600Y-150499400D01*
X90560400Y-146456400D02*
X89712800Y-147304000D01*
X88360200Y-150114000D02*
X88745600Y-150499400D01*
X88916000Y-147304000D02*
X88493600Y-147726400D01*
X97385600Y-154679400D02*
X88745600Y-154679400D01*
X88745600Y-150499400D02*
X88745600Y-154679400D01*
X87579200Y-150114000D02*
X88360200Y-150114000D01*
X94565600Y-146456400D02*
X90560400Y-146456400D01*
X96367600Y-146659600D02*
X96418400Y-146659600D01*
X89712800Y-147304000D02*
X88916000Y-147304000D01*
X96367600Y-146659600D02*
X97385600Y-147677600D01*
%TO.N,Net-(J2-CC1)*%
X91643200Y-147304000D02*
X91815600Y-147476400D01*
X91815600Y-147476400D02*
X91815600Y-149924400D01*
%TO.N,Net-(J2-CC2)*%
X93573600Y-148107401D02*
X93573600Y-147304000D01*
X94815600Y-149349401D02*
X93573600Y-148107401D01*
X94815600Y-149924400D02*
X94815600Y-149349401D01*
%TD*%
%TA.AperFunction,Conductor*%
%TO.N,GND*%
G36*
X112488400Y-143755560D02*
G01*
X112488400Y-144793599D01*
X112817965Y-144793599D01*
X112885961Y-144787421D01*
X112885969Y-144787419D01*
X112932868Y-144772805D01*
X113002728Y-144771653D01*
X113062121Y-144808453D01*
X113092189Y-144871522D01*
X113093750Y-144889696D01*
X113130061Y-147903484D01*
X113111186Y-147970756D01*
X113058937Y-148017144D01*
X113003895Y-148028959D01*
X111520319Y-148002931D01*
X111453635Y-147982073D01*
X111408813Y-147928475D01*
X111400085Y-147859153D01*
X111415762Y-147815829D01*
X111492307Y-147686397D01*
X111492309Y-147686394D01*
X111538478Y-147527481D01*
X111539130Y-147519200D01*
X110797900Y-147519200D01*
X110730861Y-147499515D01*
X110685106Y-147446711D01*
X110673900Y-147395200D01*
X110673900Y-147269200D01*
X110547900Y-147269200D01*
X110480861Y-147249515D01*
X110435106Y-147196711D01*
X110423900Y-147145200D01*
X110423900Y-147019200D01*
X110923900Y-147019200D01*
X111539130Y-147019200D01*
X111538478Y-147010918D01*
X111492309Y-146852005D01*
X111492307Y-146852002D01*
X111415851Y-146722721D01*
X111398668Y-146654997D01*
X111415851Y-146596479D01*
X111492307Y-146467197D01*
X111492309Y-146467194D01*
X111538478Y-146308281D01*
X111539130Y-146300000D01*
X110923900Y-146300000D01*
X110923900Y-147019200D01*
X110423900Y-147019200D01*
X110423900Y-145821600D01*
X110409419Y-145807119D01*
X110405532Y-145800000D01*
X110923900Y-145800000D01*
X111539130Y-145800000D01*
X111538478Y-145791718D01*
X111492309Y-145632805D01*
X111492307Y-145632802D01*
X111405472Y-145485971D01*
X111388289Y-145418247D01*
X111405473Y-145359728D01*
X111441506Y-145298799D01*
X111441509Y-145298794D01*
X111487678Y-145139881D01*
X111488330Y-145131600D01*
X110923900Y-145131600D01*
X110923900Y-145800000D01*
X110405532Y-145800000D01*
X110375934Y-145745796D01*
X110373100Y-145719438D01*
X110373100Y-145005600D01*
X110392785Y-144938561D01*
X110445589Y-144892806D01*
X110497100Y-144881600D01*
X110623100Y-144881600D01*
X110623100Y-144755600D01*
X110642785Y-144688561D01*
X110695589Y-144642806D01*
X110747100Y-144631600D01*
X111496600Y-144631600D01*
X111563639Y-144651285D01*
X111609394Y-144704089D01*
X111620600Y-144755600D01*
X111620600Y-144790123D01*
X111658844Y-144793599D01*
X111988399Y-144793599D01*
X111988400Y-144793598D01*
X111988400Y-143705560D01*
X112488400Y-143755560D01*
G37*
%TD.AperFunction*%
%TD*%
%TA.AperFunction,Conductor*%
%TO.N,GND*%
G36*
X104398033Y-144185171D02*
G01*
X104450076Y-144231790D01*
X104456066Y-144242632D01*
X104495306Y-144322898D01*
X104503575Y-144339813D01*
X104541207Y-144377444D01*
X104543749Y-144382100D01*
X104564436Y-144409672D01*
X104579718Y-144440235D01*
X104597200Y-144475200D01*
X104952800Y-144526000D01*
X105814089Y-144494100D01*
X105899036Y-144494100D01*
X105927992Y-144489881D01*
X106312826Y-144475628D01*
X106380546Y-144492818D01*
X106428224Y-144543892D01*
X106440720Y-144612635D01*
X106439396Y-144621815D01*
X106439122Y-144623314D01*
X106438470Y-144631600D01*
X107179700Y-144631600D01*
X107246739Y-144651285D01*
X107292494Y-144704089D01*
X107303700Y-144755600D01*
X107303700Y-144881600D01*
X107429700Y-144881600D01*
X107496739Y-144901285D01*
X107542494Y-144954089D01*
X107553700Y-145005600D01*
X107553700Y-148100393D01*
X107546372Y-148125346D01*
X107490311Y-148207569D01*
X107490308Y-148207573D01*
X106902944Y-149069040D01*
X106851215Y-149112337D01*
X105420010Y-149753912D01*
X105399361Y-149761059D01*
X104570074Y-149968380D01*
X104500262Y-149965542D01*
X104443067Y-149925412D01*
X104416647Y-149860730D01*
X104416000Y-149848082D01*
X104416000Y-149620000D01*
X103540000Y-149620000D01*
X103472961Y-149600315D01*
X103427206Y-149547511D01*
X103416000Y-149496000D01*
X103416000Y-149370000D01*
X103290000Y-149370000D01*
X103222961Y-149350315D01*
X103177206Y-149297511D01*
X103166000Y-149246000D01*
X103166000Y-149120000D01*
X103666000Y-149120000D01*
X104416000Y-149120000D01*
X104416000Y-148872172D01*
X104415999Y-148872155D01*
X104409598Y-148812627D01*
X104409596Y-148812620D01*
X104359354Y-148677913D01*
X104359350Y-148677906D01*
X104273190Y-148562812D01*
X104273187Y-148562809D01*
X104158093Y-148476649D01*
X104158086Y-148476645D01*
X104023379Y-148426403D01*
X104023372Y-148426401D01*
X103963844Y-148420000D01*
X103666000Y-148420000D01*
X103666000Y-149120000D01*
X103166000Y-149120000D01*
X103166000Y-148420000D01*
X102868155Y-148420000D01*
X102800913Y-148427231D01*
X102800705Y-148425303D01*
X102741173Y-148422103D01*
X102684507Y-148381228D01*
X102658936Y-148316206D01*
X102658515Y-148300991D01*
X102685017Y-147519200D01*
X106438470Y-147519200D01*
X106439121Y-147527481D01*
X106485290Y-147686394D01*
X106485292Y-147686397D01*
X106569533Y-147828842D01*
X106569539Y-147828850D01*
X106686549Y-147945860D01*
X106686557Y-147945866D01*
X106829002Y-148030107D01*
X106829005Y-148030108D01*
X106987916Y-148076277D01*
X106987922Y-148076278D01*
X107025042Y-148079199D01*
X107025058Y-148079200D01*
X107053700Y-148079200D01*
X107053700Y-147519200D01*
X106438470Y-147519200D01*
X102685017Y-147519200D01*
X102701966Y-147019200D01*
X106438470Y-147019200D01*
X107053700Y-147019200D01*
X107053700Y-146300000D01*
X106438470Y-146300000D01*
X106439121Y-146308281D01*
X106485290Y-146467194D01*
X106485294Y-146467201D01*
X106561748Y-146596480D01*
X106578931Y-146664204D01*
X106561748Y-146722720D01*
X106485294Y-146851998D01*
X106485290Y-146852005D01*
X106439121Y-147010918D01*
X106438470Y-147019200D01*
X102701966Y-147019200D01*
X102717600Y-146558000D01*
X102724044Y-146338899D01*
X102745690Y-146272468D01*
X102799817Y-146228285D01*
X102861248Y-146219256D01*
X102868160Y-146219999D01*
X102868172Y-146220000D01*
X103166000Y-146220000D01*
X103666000Y-146220000D01*
X103963828Y-146220000D01*
X103963844Y-146219999D01*
X104023372Y-146213598D01*
X104023379Y-146213596D01*
X104158086Y-146163354D01*
X104158090Y-146163352D01*
X104167381Y-146156397D01*
X104167383Y-146156395D01*
X104273190Y-146077186D01*
X104359350Y-145962093D01*
X104359354Y-145962086D01*
X104409596Y-145827379D01*
X104409598Y-145827372D01*
X104412541Y-145800000D01*
X106438470Y-145800000D01*
X107053700Y-145800000D01*
X107053700Y-145131600D01*
X106438470Y-145131600D01*
X106439121Y-145139881D01*
X106485290Y-145298794D01*
X106485292Y-145298797D01*
X106546727Y-145402679D01*
X106563910Y-145470403D01*
X106546727Y-145528921D01*
X106485292Y-145632802D01*
X106485290Y-145632805D01*
X106439121Y-145791718D01*
X106438470Y-145800000D01*
X104412541Y-145800000D01*
X104415999Y-145767844D01*
X104416000Y-145767827D01*
X104416000Y-145520000D01*
X103666000Y-145520000D01*
X103666000Y-146220000D01*
X103166000Y-146220000D01*
X103166000Y-145394000D01*
X103185685Y-145326961D01*
X103238489Y-145281206D01*
X103290000Y-145270000D01*
X103416000Y-145270000D01*
X103416000Y-145144000D01*
X103435685Y-145076961D01*
X103488489Y-145031206D01*
X103540000Y-145020000D01*
X104416000Y-145020000D01*
X104416000Y-144772172D01*
X104415999Y-144772155D01*
X104409598Y-144712627D01*
X104409596Y-144712620D01*
X104359354Y-144577913D01*
X104359350Y-144577906D01*
X104283706Y-144476860D01*
X104244160Y-144440235D01*
X104229441Y-144415576D01*
X104212235Y-144392590D01*
X104211760Y-144385953D01*
X104208350Y-144380240D01*
X104209299Y-144351540D01*
X104207251Y-144322898D01*
X104210032Y-144312367D01*
X104226285Y-144260210D01*
X104265023Y-144202063D01*
X104329048Y-144174089D01*
X104398033Y-144185171D01*
G37*
%TD.AperFunction*%
%TD*%
M02*
