%TF.GenerationSoftware,KiCad,Pcbnew,9.0.7*%
%TF.CreationDate,2026-09-05T12:55:16+02:00*%
%TF.ProjectId,antena-wifi,616e7465-6e61-42d7-9769-66692e6b6963,1*%
%TF.SameCoordinates,Original*%
%TF.FileFunction,Legend,Top*%
%TF.FilePolarity,Positive*%
%FSLAX46Y46*%
G04 Gerber Fmt 4.6, Leading zero omitted, Abs format (unit mm)*
G04 Created by KiCad (PCBNEW 9.0.7) date 2026-09-05 12:55:16*
%MOMM*%
%LPD*%
G01*
G04 APERTURE LIST*
%ADD10C,0.150000*%
%ADD11C,0.120000*%
%ADD12C,0.254000*%
%ADD13C,0.127000*%
%ADD14C,0.200000*%
G04 APERTURE END LIST*
D10*
X104683160Y-149885400D02*
X104826017Y-149933019D01*
X104826017Y-149933019D02*
X105064112Y-149933019D01*
X105064112Y-149933019D02*
X105159350Y-149885400D01*
X105159350Y-149885400D02*
X105206969Y-149837780D01*
X105206969Y-149837780D02*
X105254588Y-149742542D01*
X105254588Y-149742542D02*
X105254588Y-149647304D01*
X105254588Y-149647304D02*
X105206969Y-149552066D01*
X105206969Y-149552066D02*
X105159350Y-149504447D01*
X105159350Y-149504447D02*
X105064112Y-149456828D01*
X105064112Y-149456828D02*
X104873636Y-149409209D01*
X104873636Y-149409209D02*
X104778398Y-149361590D01*
X104778398Y-149361590D02*
X104730779Y-149313971D01*
X104730779Y-149313971D02*
X104683160Y-149218733D01*
X104683160Y-149218733D02*
X104683160Y-149123495D01*
X104683160Y-149123495D02*
X104730779Y-149028257D01*
X104730779Y-149028257D02*
X104778398Y-148980638D01*
X104778398Y-148980638D02*
X104873636Y-148933019D01*
X104873636Y-148933019D02*
X105111731Y-148933019D01*
X105111731Y-148933019D02*
X105254588Y-148980638D01*
X105587922Y-148933019D02*
X105826017Y-149933019D01*
X105826017Y-149933019D02*
X106016493Y-149218733D01*
X106016493Y-149218733D02*
X106206969Y-149933019D01*
X106206969Y-149933019D02*
X106445065Y-148933019D01*
X107349826Y-149933019D02*
X106778398Y-149933019D01*
X107064112Y-149933019D02*
X107064112Y-148933019D01*
X107064112Y-148933019D02*
X106968874Y-149075876D01*
X106968874Y-149075876D02*
X106873636Y-149171114D01*
X106873636Y-149171114D02*
X106778398Y-149218733D01*
X98488619Y-155812877D02*
X99488619Y-155479544D01*
X99488619Y-155479544D02*
X98488619Y-155146211D01*
X99583857Y-155050973D02*
X99583857Y-154289068D01*
X98488619Y-154050972D02*
X99298142Y-154050972D01*
X99298142Y-154050972D02*
X99393380Y-154003353D01*
X99393380Y-154003353D02*
X99441000Y-153955734D01*
X99441000Y-153955734D02*
X99488619Y-153860496D01*
X99488619Y-153860496D02*
X99488619Y-153670020D01*
X99488619Y-153670020D02*
X99441000Y-153574782D01*
X99441000Y-153574782D02*
X99393380Y-153527163D01*
X99393380Y-153527163D02*
X99298142Y-153479544D01*
X99298142Y-153479544D02*
X98488619Y-153479544D01*
X99441000Y-153050972D02*
X99488619Y-152908115D01*
X99488619Y-152908115D02*
X99488619Y-152670020D01*
X99488619Y-152670020D02*
X99441000Y-152574782D01*
X99441000Y-152574782D02*
X99393380Y-152527163D01*
X99393380Y-152527163D02*
X99298142Y-152479544D01*
X99298142Y-152479544D02*
X99202904Y-152479544D01*
X99202904Y-152479544D02*
X99107666Y-152527163D01*
X99107666Y-152527163D02*
X99060047Y-152574782D01*
X99060047Y-152574782D02*
X99012428Y-152670020D01*
X99012428Y-152670020D02*
X98964809Y-152860496D01*
X98964809Y-152860496D02*
X98917190Y-152955734D01*
X98917190Y-152955734D02*
X98869571Y-153003353D01*
X98869571Y-153003353D02*
X98774333Y-153050972D01*
X98774333Y-153050972D02*
X98679095Y-153050972D01*
X98679095Y-153050972D02*
X98583857Y-153003353D01*
X98583857Y-153003353D02*
X98536238Y-152955734D01*
X98536238Y-152955734D02*
X98488619Y-152860496D01*
X98488619Y-152860496D02*
X98488619Y-152622401D01*
X98488619Y-152622401D02*
X98536238Y-152479544D01*
X98964809Y-151717639D02*
X99012428Y-151574782D01*
X99012428Y-151574782D02*
X99060047Y-151527163D01*
X99060047Y-151527163D02*
X99155285Y-151479544D01*
X99155285Y-151479544D02*
X99298142Y-151479544D01*
X99298142Y-151479544D02*
X99393380Y-151527163D01*
X99393380Y-151527163D02*
X99441000Y-151574782D01*
X99441000Y-151574782D02*
X99488619Y-151670020D01*
X99488619Y-151670020D02*
X99488619Y-152050972D01*
X99488619Y-152050972D02*
X98488619Y-152050972D01*
X98488619Y-152050972D02*
X98488619Y-151717639D01*
X98488619Y-151717639D02*
X98536238Y-151622401D01*
X98536238Y-151622401D02*
X98583857Y-151574782D01*
X98583857Y-151574782D02*
X98679095Y-151527163D01*
X98679095Y-151527163D02*
X98774333Y-151527163D01*
X98774333Y-151527163D02*
X98869571Y-151574782D01*
X98869571Y-151574782D02*
X98917190Y-151622401D01*
X98917190Y-151622401D02*
X98964809Y-151717639D01*
X98964809Y-151717639D02*
X98964809Y-152050972D01*
X114210980Y-151781122D02*
X113210980Y-152114455D01*
X113210980Y-152114455D02*
X114210980Y-152447788D01*
X113115742Y-152543027D02*
X113115742Y-153304931D01*
X113210980Y-153543027D02*
X114210980Y-153543027D01*
X113830028Y-153543027D02*
X113877647Y-153638265D01*
X113877647Y-153638265D02*
X113877647Y-153828741D01*
X113877647Y-153828741D02*
X113830028Y-153923979D01*
X113830028Y-153923979D02*
X113782409Y-153971598D01*
X113782409Y-153971598D02*
X113687171Y-154019217D01*
X113687171Y-154019217D02*
X113401457Y-154019217D01*
X113401457Y-154019217D02*
X113306219Y-153971598D01*
X113306219Y-153971598D02*
X113258600Y-153923979D01*
X113258600Y-153923979D02*
X113210980Y-153828741D01*
X113210980Y-153828741D02*
X113210980Y-153638265D01*
X113210980Y-153638265D02*
X113258600Y-153543027D01*
X113210980Y-154876360D02*
X113734790Y-154876360D01*
X113734790Y-154876360D02*
X113830028Y-154828741D01*
X113830028Y-154828741D02*
X113877647Y-154733503D01*
X113877647Y-154733503D02*
X113877647Y-154543027D01*
X113877647Y-154543027D02*
X113830028Y-154447789D01*
X113258600Y-154876360D02*
X113210980Y-154781122D01*
X113210980Y-154781122D02*
X113210980Y-154543027D01*
X113210980Y-154543027D02*
X113258600Y-154447789D01*
X113258600Y-154447789D02*
X113353838Y-154400170D01*
X113353838Y-154400170D02*
X113449076Y-154400170D01*
X113449076Y-154400170D02*
X113544314Y-154447789D01*
X113544314Y-154447789D02*
X113591933Y-154543027D01*
X113591933Y-154543027D02*
X113591933Y-154781122D01*
X113591933Y-154781122D02*
X113639552Y-154876360D01*
X113877647Y-155209694D02*
X113877647Y-155590646D01*
X114210980Y-155352551D02*
X113353838Y-155352551D01*
X113353838Y-155352551D02*
X113258600Y-155400170D01*
X113258600Y-155400170D02*
X113210980Y-155495408D01*
X113210980Y-155495408D02*
X113210980Y-155590646D01*
X113877647Y-155781123D02*
X113877647Y-156162075D01*
X114210980Y-155923980D02*
X113353838Y-155923980D01*
X113353838Y-155923980D02*
X113258600Y-155971599D01*
X113258600Y-155971599D02*
X113210980Y-156066837D01*
X113210980Y-156066837D02*
X113210980Y-156162075D01*
X118671933Y-154533504D02*
X118671933Y-153009695D01*
X119433838Y-153771599D02*
X117910028Y-153771599D01*
X91476533Y-144371219D02*
X91143200Y-143895028D01*
X90905105Y-144371219D02*
X90905105Y-143371219D01*
X90905105Y-143371219D02*
X91286057Y-143371219D01*
X91286057Y-143371219D02*
X91381295Y-143418838D01*
X91381295Y-143418838D02*
X91428914Y-143466457D01*
X91428914Y-143466457D02*
X91476533Y-143561695D01*
X91476533Y-143561695D02*
X91476533Y-143704552D01*
X91476533Y-143704552D02*
X91428914Y-143799790D01*
X91428914Y-143799790D02*
X91381295Y-143847409D01*
X91381295Y-143847409D02*
X91286057Y-143895028D01*
X91286057Y-143895028D02*
X90905105Y-143895028D01*
X92333676Y-143704552D02*
X92333676Y-144371219D01*
X92095581Y-143323600D02*
X91857486Y-144037885D01*
X91857486Y-144037885D02*
X92476533Y-144037885D01*
X89393733Y-144320419D02*
X89060400Y-143844228D01*
X88822305Y-144320419D02*
X88822305Y-143320419D01*
X88822305Y-143320419D02*
X89203257Y-143320419D01*
X89203257Y-143320419D02*
X89298495Y-143368038D01*
X89298495Y-143368038D02*
X89346114Y-143415657D01*
X89346114Y-143415657D02*
X89393733Y-143510895D01*
X89393733Y-143510895D02*
X89393733Y-143653752D01*
X89393733Y-143653752D02*
X89346114Y-143748990D01*
X89346114Y-143748990D02*
X89298495Y-143796609D01*
X89298495Y-143796609D02*
X89203257Y-143844228D01*
X89203257Y-143844228D02*
X88822305Y-143844228D01*
X90298495Y-143320419D02*
X89822305Y-143320419D01*
X89822305Y-143320419D02*
X89774686Y-143796609D01*
X89774686Y-143796609D02*
X89822305Y-143748990D01*
X89822305Y-143748990D02*
X89917543Y-143701371D01*
X89917543Y-143701371D02*
X90155638Y-143701371D01*
X90155638Y-143701371D02*
X90250876Y-143748990D01*
X90250876Y-143748990D02*
X90298495Y-143796609D01*
X90298495Y-143796609D02*
X90346114Y-143891847D01*
X90346114Y-143891847D02*
X90346114Y-144129942D01*
X90346114Y-144129942D02*
X90298495Y-144225180D01*
X90298495Y-144225180D02*
X90250876Y-144272800D01*
X90250876Y-144272800D02*
X90155638Y-144320419D01*
X90155638Y-144320419D02*
X89917543Y-144320419D01*
X89917543Y-144320419D02*
X89822305Y-144272800D01*
X89822305Y-144272800D02*
X89774686Y-144225180D01*
X105683067Y-147606104D02*
X105644971Y-147644200D01*
X105644971Y-147644200D02*
X105530686Y-147682295D01*
X105530686Y-147682295D02*
X105454495Y-147682295D01*
X105454495Y-147682295D02*
X105340209Y-147644200D01*
X105340209Y-147644200D02*
X105264019Y-147568009D01*
X105264019Y-147568009D02*
X105225924Y-147491819D01*
X105225924Y-147491819D02*
X105187828Y-147339438D01*
X105187828Y-147339438D02*
X105187828Y-147225152D01*
X105187828Y-147225152D02*
X105225924Y-147072771D01*
X105225924Y-147072771D02*
X105264019Y-146996580D01*
X105264019Y-146996580D02*
X105340209Y-146920390D01*
X105340209Y-146920390D02*
X105454495Y-146882295D01*
X105454495Y-146882295D02*
X105530686Y-146882295D01*
X105530686Y-146882295D02*
X105644971Y-146920390D01*
X105644971Y-146920390D02*
X105683067Y-146958485D01*
X106444971Y-147682295D02*
X105987828Y-147682295D01*
X106216400Y-147682295D02*
X106216400Y-146882295D01*
X106216400Y-146882295D02*
X106140209Y-146996580D01*
X106140209Y-146996580D02*
X106064019Y-147072771D01*
X106064019Y-147072771D02*
X105987828Y-147110866D01*
X93559333Y-144371219D02*
X93226000Y-143895028D01*
X92987905Y-144371219D02*
X92987905Y-143371219D01*
X92987905Y-143371219D02*
X93368857Y-143371219D01*
X93368857Y-143371219D02*
X93464095Y-143418838D01*
X93464095Y-143418838D02*
X93511714Y-143466457D01*
X93511714Y-143466457D02*
X93559333Y-143561695D01*
X93559333Y-143561695D02*
X93559333Y-143704552D01*
X93559333Y-143704552D02*
X93511714Y-143799790D01*
X93511714Y-143799790D02*
X93464095Y-143847409D01*
X93464095Y-143847409D02*
X93368857Y-143895028D01*
X93368857Y-143895028D02*
X92987905Y-143895028D01*
X93892667Y-143371219D02*
X94511714Y-143371219D01*
X94511714Y-143371219D02*
X94178381Y-143752171D01*
X94178381Y-143752171D02*
X94321238Y-143752171D01*
X94321238Y-143752171D02*
X94416476Y-143799790D01*
X94416476Y-143799790D02*
X94464095Y-143847409D01*
X94464095Y-143847409D02*
X94511714Y-143942647D01*
X94511714Y-143942647D02*
X94511714Y-144180742D01*
X94511714Y-144180742D02*
X94464095Y-144275980D01*
X94464095Y-144275980D02*
X94416476Y-144323600D01*
X94416476Y-144323600D02*
X94321238Y-144371219D01*
X94321238Y-144371219D02*
X94035524Y-144371219D01*
X94035524Y-144371219D02*
X93940286Y-144323600D01*
X93940286Y-144323600D02*
X93892667Y-144275980D01*
X105683067Y-146437704D02*
X105644971Y-146475800D01*
X105644971Y-146475800D02*
X105530686Y-146513895D01*
X105530686Y-146513895D02*
X105454495Y-146513895D01*
X105454495Y-146513895D02*
X105340209Y-146475800D01*
X105340209Y-146475800D02*
X105264019Y-146399609D01*
X105264019Y-146399609D02*
X105225924Y-146323419D01*
X105225924Y-146323419D02*
X105187828Y-146171038D01*
X105187828Y-146171038D02*
X105187828Y-146056752D01*
X105187828Y-146056752D02*
X105225924Y-145904371D01*
X105225924Y-145904371D02*
X105264019Y-145828180D01*
X105264019Y-145828180D02*
X105340209Y-145751990D01*
X105340209Y-145751990D02*
X105454495Y-145713895D01*
X105454495Y-145713895D02*
X105530686Y-145713895D01*
X105530686Y-145713895D02*
X105644971Y-145751990D01*
X105644971Y-145751990D02*
X105683067Y-145790085D01*
X105987828Y-145790085D02*
X106025924Y-145751990D01*
X106025924Y-145751990D02*
X106102114Y-145713895D01*
X106102114Y-145713895D02*
X106292590Y-145713895D01*
X106292590Y-145713895D02*
X106368781Y-145751990D01*
X106368781Y-145751990D02*
X106406876Y-145790085D01*
X106406876Y-145790085D02*
X106444971Y-145866276D01*
X106444971Y-145866276D02*
X106444971Y-145942466D01*
X106444971Y-145942466D02*
X106406876Y-146056752D01*
X106406876Y-146056752D02*
X105949733Y-146513895D01*
X105949733Y-146513895D02*
X106444971Y-146513895D01*
X111931467Y-147606104D02*
X111893371Y-147644200D01*
X111893371Y-147644200D02*
X111779086Y-147682295D01*
X111779086Y-147682295D02*
X111702895Y-147682295D01*
X111702895Y-147682295D02*
X111588609Y-147644200D01*
X111588609Y-147644200D02*
X111512419Y-147568009D01*
X111512419Y-147568009D02*
X111474324Y-147491819D01*
X111474324Y-147491819D02*
X111436228Y-147339438D01*
X111436228Y-147339438D02*
X111436228Y-147225152D01*
X111436228Y-147225152D02*
X111474324Y-147072771D01*
X111474324Y-147072771D02*
X111512419Y-146996580D01*
X111512419Y-146996580D02*
X111588609Y-146920390D01*
X111588609Y-146920390D02*
X111702895Y-146882295D01*
X111702895Y-146882295D02*
X111779086Y-146882295D01*
X111779086Y-146882295D02*
X111893371Y-146920390D01*
X111893371Y-146920390D02*
X111931467Y-146958485D01*
X112617181Y-147148961D02*
X112617181Y-147682295D01*
X112426705Y-146844200D02*
X112236228Y-147415628D01*
X112236228Y-147415628D02*
X112731467Y-147415628D01*
X111931467Y-145218504D02*
X111893371Y-145256600D01*
X111893371Y-145256600D02*
X111779086Y-145294695D01*
X111779086Y-145294695D02*
X111702895Y-145294695D01*
X111702895Y-145294695D02*
X111588609Y-145256600D01*
X111588609Y-145256600D02*
X111512419Y-145180409D01*
X111512419Y-145180409D02*
X111474324Y-145104219D01*
X111474324Y-145104219D02*
X111436228Y-144951838D01*
X111436228Y-144951838D02*
X111436228Y-144837552D01*
X111436228Y-144837552D02*
X111474324Y-144685171D01*
X111474324Y-144685171D02*
X111512419Y-144608980D01*
X111512419Y-144608980D02*
X111588609Y-144532790D01*
X111588609Y-144532790D02*
X111702895Y-144494695D01*
X111702895Y-144494695D02*
X111779086Y-144494695D01*
X111779086Y-144494695D02*
X111893371Y-144532790D01*
X111893371Y-144532790D02*
X111931467Y-144570885D01*
X112388609Y-144837552D02*
X112312419Y-144799457D01*
X112312419Y-144799457D02*
X112274324Y-144761361D01*
X112274324Y-144761361D02*
X112236228Y-144685171D01*
X112236228Y-144685171D02*
X112236228Y-144647076D01*
X112236228Y-144647076D02*
X112274324Y-144570885D01*
X112274324Y-144570885D02*
X112312419Y-144532790D01*
X112312419Y-144532790D02*
X112388609Y-144494695D01*
X112388609Y-144494695D02*
X112540990Y-144494695D01*
X112540990Y-144494695D02*
X112617181Y-144532790D01*
X112617181Y-144532790D02*
X112655276Y-144570885D01*
X112655276Y-144570885D02*
X112693371Y-144647076D01*
X112693371Y-144647076D02*
X112693371Y-144685171D01*
X112693371Y-144685171D02*
X112655276Y-144761361D01*
X112655276Y-144761361D02*
X112617181Y-144799457D01*
X112617181Y-144799457D02*
X112540990Y-144837552D01*
X112540990Y-144837552D02*
X112388609Y-144837552D01*
X112388609Y-144837552D02*
X112312419Y-144875647D01*
X112312419Y-144875647D02*
X112274324Y-144913742D01*
X112274324Y-144913742D02*
X112236228Y-144989933D01*
X112236228Y-144989933D02*
X112236228Y-145142314D01*
X112236228Y-145142314D02*
X112274324Y-145218504D01*
X112274324Y-145218504D02*
X112312419Y-145256600D01*
X112312419Y-145256600D02*
X112388609Y-145294695D01*
X112388609Y-145294695D02*
X112540990Y-145294695D01*
X112540990Y-145294695D02*
X112617181Y-145256600D01*
X112617181Y-145256600D02*
X112655276Y-145218504D01*
X112655276Y-145218504D02*
X112693371Y-145142314D01*
X112693371Y-145142314D02*
X112693371Y-144989933D01*
X112693371Y-144989933D02*
X112655276Y-144913742D01*
X112655276Y-144913742D02*
X112617181Y-144875647D01*
X112617181Y-144875647D02*
X112540990Y-144837552D01*
X123904333Y-154533504D02*
X123904333Y-153009695D01*
X105683067Y-145218504D02*
X105644971Y-145256600D01*
X105644971Y-145256600D02*
X105530686Y-145294695D01*
X105530686Y-145294695D02*
X105454495Y-145294695D01*
X105454495Y-145294695D02*
X105340209Y-145256600D01*
X105340209Y-145256600D02*
X105264019Y-145180409D01*
X105264019Y-145180409D02*
X105225924Y-145104219D01*
X105225924Y-145104219D02*
X105187828Y-144951838D01*
X105187828Y-144951838D02*
X105187828Y-144837552D01*
X105187828Y-144837552D02*
X105225924Y-144685171D01*
X105225924Y-144685171D02*
X105264019Y-144608980D01*
X105264019Y-144608980D02*
X105340209Y-144532790D01*
X105340209Y-144532790D02*
X105454495Y-144494695D01*
X105454495Y-144494695D02*
X105530686Y-144494695D01*
X105530686Y-144494695D02*
X105644971Y-144532790D01*
X105644971Y-144532790D02*
X105683067Y-144570885D01*
X105949733Y-144494695D02*
X106483067Y-144494695D01*
X106483067Y-144494695D02*
X106140209Y-145294695D01*
X98982305Y-146911219D02*
X98982305Y-145911219D01*
X98982305Y-145911219D02*
X99220400Y-145911219D01*
X99220400Y-145911219D02*
X99363257Y-145958838D01*
X99363257Y-145958838D02*
X99458495Y-146054076D01*
X99458495Y-146054076D02*
X99506114Y-146149314D01*
X99506114Y-146149314D02*
X99553733Y-146339790D01*
X99553733Y-146339790D02*
X99553733Y-146482647D01*
X99553733Y-146482647D02*
X99506114Y-146673123D01*
X99506114Y-146673123D02*
X99458495Y-146768361D01*
X99458495Y-146768361D02*
X99363257Y-146863600D01*
X99363257Y-146863600D02*
X99220400Y-146911219D01*
X99220400Y-146911219D02*
X98982305Y-146911219D01*
X99934686Y-146006457D02*
X99982305Y-145958838D01*
X99982305Y-145958838D02*
X100077543Y-145911219D01*
X100077543Y-145911219D02*
X100315638Y-145911219D01*
X100315638Y-145911219D02*
X100410876Y-145958838D01*
X100410876Y-145958838D02*
X100458495Y-146006457D01*
X100458495Y-146006457D02*
X100506114Y-146101695D01*
X100506114Y-146101695D02*
X100506114Y-146196933D01*
X100506114Y-146196933D02*
X100458495Y-146339790D01*
X100458495Y-146339790D02*
X99887067Y-146911219D01*
X99887067Y-146911219D02*
X100506114Y-146911219D01*
X122515333Y-149457580D02*
X122467714Y-149505200D01*
X122467714Y-149505200D02*
X122324857Y-149552819D01*
X122324857Y-149552819D02*
X122229619Y-149552819D01*
X122229619Y-149552819D02*
X122086762Y-149505200D01*
X122086762Y-149505200D02*
X121991524Y-149409961D01*
X121991524Y-149409961D02*
X121943905Y-149314723D01*
X121943905Y-149314723D02*
X121896286Y-149124247D01*
X121896286Y-149124247D02*
X121896286Y-148981390D01*
X121896286Y-148981390D02*
X121943905Y-148790914D01*
X121943905Y-148790914D02*
X121991524Y-148695676D01*
X121991524Y-148695676D02*
X122086762Y-148600438D01*
X122086762Y-148600438D02*
X122229619Y-148552819D01*
X122229619Y-148552819D02*
X122324857Y-148552819D01*
X122324857Y-148552819D02*
X122467714Y-148600438D01*
X122467714Y-148600438D02*
X122515333Y-148648057D01*
X123420095Y-148552819D02*
X122943905Y-148552819D01*
X122943905Y-148552819D02*
X122896286Y-149029009D01*
X122896286Y-149029009D02*
X122943905Y-148981390D01*
X122943905Y-148981390D02*
X123039143Y-148933771D01*
X123039143Y-148933771D02*
X123277238Y-148933771D01*
X123277238Y-148933771D02*
X123372476Y-148981390D01*
X123372476Y-148981390D02*
X123420095Y-149029009D01*
X123420095Y-149029009D02*
X123467714Y-149124247D01*
X123467714Y-149124247D02*
X123467714Y-149362342D01*
X123467714Y-149362342D02*
X123420095Y-149457580D01*
X123420095Y-149457580D02*
X123372476Y-149505200D01*
X123372476Y-149505200D02*
X123277238Y-149552819D01*
X123277238Y-149552819D02*
X123039143Y-149552819D01*
X123039143Y-149552819D02*
X122943905Y-149505200D01*
X122943905Y-149505200D02*
X122896286Y-149457580D01*
X111931467Y-146437704D02*
X111893371Y-146475800D01*
X111893371Y-146475800D02*
X111779086Y-146513895D01*
X111779086Y-146513895D02*
X111702895Y-146513895D01*
X111702895Y-146513895D02*
X111588609Y-146475800D01*
X111588609Y-146475800D02*
X111512419Y-146399609D01*
X111512419Y-146399609D02*
X111474324Y-146323419D01*
X111474324Y-146323419D02*
X111436228Y-146171038D01*
X111436228Y-146171038D02*
X111436228Y-146056752D01*
X111436228Y-146056752D02*
X111474324Y-145904371D01*
X111474324Y-145904371D02*
X111512419Y-145828180D01*
X111512419Y-145828180D02*
X111588609Y-145751990D01*
X111588609Y-145751990D02*
X111702895Y-145713895D01*
X111702895Y-145713895D02*
X111779086Y-145713895D01*
X111779086Y-145713895D02*
X111893371Y-145751990D01*
X111893371Y-145751990D02*
X111931467Y-145790085D01*
X112198133Y-145713895D02*
X112693371Y-145713895D01*
X112693371Y-145713895D02*
X112426705Y-146018657D01*
X112426705Y-146018657D02*
X112540990Y-146018657D01*
X112540990Y-146018657D02*
X112617181Y-146056752D01*
X112617181Y-146056752D02*
X112655276Y-146094847D01*
X112655276Y-146094847D02*
X112693371Y-146171038D01*
X112693371Y-146171038D02*
X112693371Y-146361514D01*
X112693371Y-146361514D02*
X112655276Y-146437704D01*
X112655276Y-146437704D02*
X112617181Y-146475800D01*
X112617181Y-146475800D02*
X112540990Y-146513895D01*
X112540990Y-146513895D02*
X112312419Y-146513895D01*
X112312419Y-146513895D02*
X112236228Y-146475800D01*
X112236228Y-146475800D02*
X112198133Y-146437704D01*
X122312133Y-145495180D02*
X122264514Y-145542800D01*
X122264514Y-145542800D02*
X122121657Y-145590419D01*
X122121657Y-145590419D02*
X122026419Y-145590419D01*
X122026419Y-145590419D02*
X121883562Y-145542800D01*
X121883562Y-145542800D02*
X121788324Y-145447561D01*
X121788324Y-145447561D02*
X121740705Y-145352323D01*
X121740705Y-145352323D02*
X121693086Y-145161847D01*
X121693086Y-145161847D02*
X121693086Y-145018990D01*
X121693086Y-145018990D02*
X121740705Y-144828514D01*
X121740705Y-144828514D02*
X121788324Y-144733276D01*
X121788324Y-144733276D02*
X121883562Y-144638038D01*
X121883562Y-144638038D02*
X122026419Y-144590419D01*
X122026419Y-144590419D02*
X122121657Y-144590419D01*
X122121657Y-144590419D02*
X122264514Y-144638038D01*
X122264514Y-144638038D02*
X122312133Y-144685657D01*
X123169276Y-144590419D02*
X122978800Y-144590419D01*
X122978800Y-144590419D02*
X122883562Y-144638038D01*
X122883562Y-144638038D02*
X122835943Y-144685657D01*
X122835943Y-144685657D02*
X122740705Y-144828514D01*
X122740705Y-144828514D02*
X122693086Y-145018990D01*
X122693086Y-145018990D02*
X122693086Y-145399942D01*
X122693086Y-145399942D02*
X122740705Y-145495180D01*
X122740705Y-145495180D02*
X122788324Y-145542800D01*
X122788324Y-145542800D02*
X122883562Y-145590419D01*
X122883562Y-145590419D02*
X123074038Y-145590419D01*
X123074038Y-145590419D02*
X123169276Y-145542800D01*
X123169276Y-145542800D02*
X123216895Y-145495180D01*
X123216895Y-145495180D02*
X123264514Y-145399942D01*
X123264514Y-145399942D02*
X123264514Y-145161847D01*
X123264514Y-145161847D02*
X123216895Y-145066609D01*
X123216895Y-145066609D02*
X123169276Y-145018990D01*
X123169276Y-145018990D02*
X123074038Y-144971371D01*
X123074038Y-144971371D02*
X122883562Y-144971371D01*
X122883562Y-144971371D02*
X122788324Y-145018990D01*
X122788324Y-145018990D02*
X122740705Y-145066609D01*
X122740705Y-145066609D02*
X122693086Y-145161847D01*
X110286895Y-150013200D02*
X110429752Y-150060819D01*
X110429752Y-150060819D02*
X110667847Y-150060819D01*
X110667847Y-150060819D02*
X110763085Y-150013200D01*
X110763085Y-150013200D02*
X110810704Y-149965580D01*
X110810704Y-149965580D02*
X110858323Y-149870342D01*
X110858323Y-149870342D02*
X110858323Y-149775104D01*
X110858323Y-149775104D02*
X110810704Y-149679866D01*
X110810704Y-149679866D02*
X110763085Y-149632247D01*
X110763085Y-149632247D02*
X110667847Y-149584628D01*
X110667847Y-149584628D02*
X110477371Y-149537009D01*
X110477371Y-149537009D02*
X110382133Y-149489390D01*
X110382133Y-149489390D02*
X110334514Y-149441771D01*
X110334514Y-149441771D02*
X110286895Y-149346533D01*
X110286895Y-149346533D02*
X110286895Y-149251295D01*
X110286895Y-149251295D02*
X110334514Y-149156057D01*
X110334514Y-149156057D02*
X110382133Y-149108438D01*
X110382133Y-149108438D02*
X110477371Y-149060819D01*
X110477371Y-149060819D02*
X110715466Y-149060819D01*
X110715466Y-149060819D02*
X110858323Y-149108438D01*
X111810704Y-150060819D02*
X111239276Y-150060819D01*
X111524990Y-150060819D02*
X111524990Y-149060819D01*
X111524990Y-149060819D02*
X111429752Y-149203676D01*
X111429752Y-149203676D02*
X111334514Y-149298914D01*
X111334514Y-149298914D02*
X111239276Y-149346533D01*
D11*
%TO.C,R4*%
X90908200Y-146531064D02*
X90908200Y-146076936D01*
X92378200Y-146531064D02*
X92378200Y-146076936D01*
%TO.C,R5*%
X88977800Y-146531064D02*
X88977800Y-146076936D01*
X90447800Y-146531064D02*
X90447800Y-146076936D01*
%TO.C,J2*%
X88395600Y-153504400D02*
X88395600Y-151804400D01*
X97735600Y-153504400D02*
X97735600Y-151804400D01*
%TO.C,C1*%
X107755365Y-146909200D02*
X107987035Y-146909200D01*
X107755365Y-147629200D02*
X107987035Y-147629200D01*
%TO.C,R3*%
X92838600Y-146531064D02*
X92838600Y-146076936D01*
X94308600Y-146531064D02*
X94308600Y-146076936D01*
%TO.C,C2*%
X107755365Y-145690000D02*
X107987035Y-145690000D01*
X107755365Y-146410000D02*
X107987035Y-146410000D01*
%TO.C,C4*%
X109990565Y-146909200D02*
X110222235Y-146909200D01*
X109990565Y-147629200D02*
X110222235Y-147629200D01*
%TO.C,C8*%
X109939765Y-144521600D02*
X110171435Y-144521600D01*
X109939765Y-145241600D02*
X110171435Y-145241600D01*
D12*
%TO.C,MOD-1*%
X88038400Y-110593600D02*
X120038400Y-110593600D01*
X88038400Y-142593600D02*
X88038400Y-110593600D01*
X88038400Y-142593600D02*
X120038400Y-142593600D01*
X120038400Y-142593600D02*
X120038400Y-110593600D01*
D11*
%TO.C,SW1*%
X101066000Y-145120000D02*
X101066000Y-149520000D01*
X102566000Y-145120000D02*
X102666000Y-145120000D01*
X102566000Y-149520000D02*
X102666000Y-149520000D01*
X104166000Y-149520000D02*
X104166000Y-145120000D01*
%TO.C,C7*%
X107987035Y-144521600D02*
X107755365Y-144521600D01*
X107987035Y-145241600D02*
X107755365Y-145241600D01*
D13*
%TO.C,D2*%
X99852000Y-147424000D02*
X100222000Y-147424000D01*
X99852000Y-148424000D02*
X100222000Y-148424000D01*
X100222000Y-147504000D02*
X100222000Y-147424000D01*
X100222000Y-148344000D02*
X100222000Y-148424000D01*
D14*
X98672000Y-147374000D02*
G75*
G02*
X98472000Y-147374000I-100000J0D01*
G01*
X98472000Y-147374000D02*
G75*
G02*
X98672000Y-147374000I100000J0D01*
G01*
D11*
%TO.C,C5*%
X113103200Y-147083200D02*
X113103200Y-150503200D01*
X113103200Y-150503200D02*
X120043200Y-150503200D01*
X120043200Y-147083200D02*
X113103200Y-147083200D01*
%TO.C,C3*%
X109990565Y-145690000D02*
X110222235Y-145690000D01*
X109990565Y-146410000D02*
X110222235Y-146410000D01*
%TO.C,C6*%
X113103200Y-143273200D02*
X113103200Y-146693200D01*
X113103200Y-146693200D02*
X120043200Y-146693200D01*
X120043200Y-143273200D02*
X113103200Y-143273200D01*
D13*
%TO.C,S1*%
X99899400Y-150471600D02*
X112749400Y-150471600D01*
X99899400Y-152021600D02*
X99899400Y-150471600D01*
X99899400Y-157071600D02*
X99899400Y-155521600D01*
X112749400Y-150471600D02*
X112749400Y-152021600D01*
X112749400Y-155521600D02*
X112749400Y-157071600D01*
X112749400Y-157071600D02*
X99899400Y-157071600D01*
D14*
X113724400Y-153871600D02*
G75*
G02*
X113524400Y-153871600I-100000J0D01*
G01*
X113524400Y-153871600D02*
G75*
G02*
X113724400Y-153871600I100000J0D01*
G01*
%TD*%
M02*
