M48
; DRILL file {KiCad 9.0.7} date 2026-09-05T12:55:52+0200
; FORMAT={-:-/ absolute / metric / decimal}
; #@! TF.CreationDate,2026-09-05T12:55:52+02:00
; #@! TF.GenerationSoftware,Kicad,Pcbnew,9.0.7
; #@! TF.FileFunction,Plated,1,2,PTH
FMAT,2
METRIC
; #@! TA.AperFunction,Plated,PTH,ViaDrill
T1C0.300
; #@! TA.AperFunction,Plated,PTH,ComponentDrill
T2C0.600
; #@! TA.AperFunction,Plated,PTH,ComponentDrill
T3C1.850
%
G90
G05
T1
X87.528Y-116.891
X87.528Y-121.463
X87.538Y-130.769
X87.538Y-135.484
X87.579Y-150.114
X88.494Y-147.726
X88.595Y-145.644
X89.51Y-152.298
X91.643Y-144.359
X93.116Y-144.359
X94.566Y-146.456
X96.266Y-144.628
X96.418Y-146.66
X96.774Y-148.844
X100.342Y-148.946
X101.803Y-110.094
X103.429Y-146.202
X103.429Y-148.59
X104.14Y-144.374
X106.274Y-147.269
X106.324Y-144.882
X106.324Y-146.05
X106.426Y-110.094
X111.404Y-144.882
X111.455Y-146.05
X111.455Y-147.269
X112.268Y-144.882
X120.498Y-130.759
X120.538Y-116.789
X120.538Y-121.412
X120.538Y-135.433
X121.209Y-145.745
X121.26Y-144.424
X121.26Y-148.082
X121.26Y-149.352
X122.225Y-150.419
T3
X101.624Y-153.772
X106.324Y-153.772
X111.024Y-153.772
T2
X88.746Y-149.949G85X88.746Y-151.049
G05
X88.746Y-154.279G85X88.746Y-155.079
G05
X97.386Y-149.949G85X97.386Y-151.049
G05
X97.386Y-154.279G85X97.386Y-155.079
G05
M30
